<?xml version="1.0" encoding="utf-8"?>
<!-- Generator: Adobe Illustrator 25.2.1, SVG Export Plug-In . SVG Version: 6.00 Build 0)  -->
<svg version="1.1" id="Layer_1" xmlns="http://www.w3.org/2000/svg" xmlns:xlink="http://www.w3.org/1999/xlink" x="0px" y="0px"
	 viewBox="0 0 304.6 269.7" style="enable-background:new 0 0 304.6 269.7;" xml:space="preserve">
<style type="text/css">
	.st0{fill:#6B7C92;}
	.st1{fill:url(#SVGID_1_);}
	.st2{fill:url(#SVGID_2_);}
	.st3{fill:url(#SVGID_3_);}
	.st4{fill:url(#SVGID_4_);}
	.st5{fill:url(#SVGID_5_);}
	.st6{fill:url(#SVGID_6_);}
	.st7{fill:url(#SVGID_7_);}
	.st8{fill:url(#SVGID_8_);}
	.st9{fill:url(#Path-2_1_);}
	.st10{fill:#FF9ED6;}
	.st11{fill:url(#Path-2-Copy-3_1_);}
	.st12{fill:#95ADFF;}
	.st13{fill:url(#Path-2-3_1_);}
	.st14{fill:#97F467;}
	.st15{fill:url(#Path-2-5_1_);}
	.st16{fill:#FFED49;}
	.st17{fill:url(#Path-2-7_1_);}
	.st18{fill:#E984FF;}
	.st19{fill:url(#Path-2-9_1_);}
	.st20{fill:#60F0AE;}
	.st21{fill:url(#Path-2-11_1_);}
	.st22{fill:#F551BB;}
	.st23{fill:url(#Path-2-Copy_1_);}
	.st24{fill:#A9F164;}
	.st25{fill:url(#Path-2-Copy-3-2_1_);}
	.st26{fill:#60D9F7;}
	.st27{fill:url(#Path-2-Copy-3-3_1_);}
	.st28{fill:#FF79C2;}
	.st29{fill:url(#SVGID_9_);}
	.st30{fill:url(#SVGID_10_);}
	.st31{fill:url(#SVGID_11_);}
	.st32{fill:url(#SVGID_12_);}
	.st33{fill:url(#SVGID_13_);}
	.st34{fill:url(#SVGID_14_);}
	.st35{fill:none;stroke:#6B7C92;stroke-miterlimit:10;stroke-dasharray:6;}
	.st36{opacity:0.6;fill:url(#_Path__1_);enable-background:new    ;}
	.st37{opacity:0.6;fill:url(#_Path_2_1_);enable-background:new    ;}
	.st38{fill:#FFFFFF;stroke:none;stroke-miterlimit:10;}
	.st39{fill:url(#SVGID_15_);}
	.st40{fill:#FCECDB;}
	.st41{fill:#F1A34F;}
	.st42{fill:#FFBB78;}
	.st43{fill:#233862;}
	.st44{fill:#FFB27D;}
	.st45{fill:#E8945B;}
	.st46{fill:#80BDCC;}
	.st47{fill:#D86713;}
	.st48{fill:#5F9AA8;}
	.st49{fill:#FFFFFF;}
	.st50{fill:#CA5F00;}
	.st51{fill:#A0795F;}
	.st52{fill:#D1A586;}
	.st53{fill:#E5BD9E;}
	.st54{fill:#DFB697;}
	.st55{fill:#1C468A;}
	.st56{fill:#163560;}
	.st57{fill:#ED975D;}
	.st58{fill:#F99746;}
	.st59{fill:#ED7D2B;}
	.st60{fill:#C69D7F;}
	.st61{fill:#B24940;}
	.st62{fill:#C65447;}
	.st63{fill:#F9DDBF;}
	.st64{fill:#EFD6BD;}
	.st65{fill:#DDB897;}
	.st66{fill:#82B378;}
	.st67{fill:#A8D29F;}
	.st68{fill:#FFB973;}
	.st69{fill:#2E3552;}
	.st70{fill:url(#SVGID_16_);}
	.st71{fill:#CCF2FF;}
	.st72{opacity:0.48;fill:#ADE4F2;}
	.st73{fill:#379CF7;}
	.st74{fill:#092B96;}
	.st75{fill:#1574BC;}
	.st76{fill:#1D88D8;}
	.st77{opacity:5.000000e-02;fill:#FFFFFF;}
	.st78{fill:url(#SVGID_17_);}
	.st79{fill:url(#SVGID_18_);}
	.st80{fill:#2B56E0;}
	.st81{fill:#7DC4F9;}
	.st82{opacity:0.39;fill:#092B96;}
	.st83{fill:#D8E8EF;}
	.st84{fill:#ABD0DD;}
	.st85{fill-rule:evenodd;clip-rule:evenodd;fill:#379CF7;}
	.st86{fill-rule:evenodd;clip-rule:evenodd;fill:#092B96;}
	.st87{fill-rule:evenodd;clip-rule:evenodd;fill:#FFA683;}
	.st88{fill-rule:evenodd;clip-rule:evenodd;fill:#EF7F5E;}
	.st89{fill:#052575;}
	.st90{fill:#173ACC;}
	.st91{fill:#FFA683;}
	.st92{fill:#09256B;}
	.st93{fill:#EF7F5E;}
	.st94{fill:#147AC6;}
	.st95{fill:#63B8F7;}
	.st96{opacity:0.4;fill:#092B96;}
	.st97{display:none;fill:#FFFFFF;stroke:#000000;stroke-miterlimit:10;}
	.st98{display:none;fill:url(#SVGID_19_);}
	.st99{display:none;}
	.st100{display:inline;fill:#DAECFA;}
	.st101{display:inline;}
	.st102{fill:#E49963;}
	.st103{fill:#4A75CB;}
	.st104{fill:#2B478B;}
	.st105{fill:#EE9849;}
	.st106{fill:#739AF0;}
	.st107{fill:#D68D5D;}
	.st108{fill:#78ACEA;}
	.st109{fill:#AFCDFB;}
	.st110{opacity:0.4;fill:#5E92DD;}
	.st111{fill:#95C0F4;}
	.st112{fill:#8CBAF1;}
	.st113{opacity:0.9;fill:#78ACEA;}
	.st114{fill:#F9E5D1;}
	.st115{fill:#EFCBAB;}
	.st116{fill:#9E332E;}
	.st117{fill:#B5453C;}
	.st118{fill:#D46B1F;}
	.st119{fill:#FCA56B;}
	.st120{display:inline;fill:#2E3552;}
</style>
<g id="Layer_2_1_">
	<g id="Items">
		<path class="st0" d="M84.4,47c6.9-1,12.3,0.2,16.3,3.5s6,8.2,6,14.8c0.1,4.5-1.1,8.8-3.5,12.6c-2.4,3.6-5.8,6.5-9.8,8.1
			c4.4,0.2,7.9,1.8,10.4,5s3.8,7.4,3.7,12.8c0,7.3-2.2,13.3-6.7,18.1s-10.6,7.7-18.4,8.8c-6.9,1-12.4-0.2-16.5-3.4
			s-6.1-8.1-6.1-14.5v-1.5L69,110v0.9c0,4.1,1.2,7.2,3.7,9.2s5.8,2.8,10.1,2.2c4.9-0.7,8.7-2.6,11.4-5.6s4-7.1,4-12
			c0-5.2-1.3-8.9-4.1-11.2s-6.8-3-12.1-2.3c-0.5,0.1-1.1,0.2-1.6,0.2c-0.4,0.1-0.7,0.1-1,0.2v-7.9c0.3,0,0.7-0.1,1.2-0.1
			s0.9-0.1,1.2-0.1c5.1-0.7,9-2.5,11.6-5.3s3.9-6.6,3.9-11.3c0-4.2-1.2-7.4-3.5-9.5s-5.6-2.9-9.7-2.4c-3.9,0.4-7.5,2.1-10.2,4.9
			c-2.6,2.9-4,6.6-4,10.5l-8.8,1.2c0.4-7,2.5-12.6,6.5-16.8C71.8,50.6,77.3,48,84.4,47z"/>
		
			<linearGradient id="SVGID_1_" gradientUnits="userSpaceOnUse" x1="67.4" y1="1940.2144" x2="98.3" y2="1940.2144" gradientTransform="matrix(1 0 0 1 0 227)">
			<stop  offset="0" style="stop-color:#CCCCCC;stop-opacity:0.25"/>
			<stop  offset="1" style="stop-color:#999999;stop-opacity:0"/>
		</linearGradient>
		<path class="st1" d="M97.7,110.1c0.1-0.3,0.2-0.7,0.2-1c0-0.2,0.1-0.4,0.1-0.6c0.1-0.4,0.1-0.8,0.1-1.2c0-0.2,0-0.4,0.1-0.6
			c0-0.6,0.1-1.2,0.1-1.9c0-5.2-1.3-8.9-4.1-11.2c-0.5-0.4-1-0.8-1.6-1.1l-6.9-3.8c0.6,0.3,1.1,0.7,1.6,1.1c2.7,2.3,4.1,6,4.1,11.2
			c0,0.6,0,1.3-0.1,1.9c0,0.2,0,0.4-0.1,0.6c0,0.4-0.1,0.8-0.1,1.2c0,0.2-0.1,0.5-0.1,0.7s-0.1,0.7-0.2,1s-0.1,0.5-0.2,0.7l-0.3,0.9
			c-0.1,0.4-0.3,0.8-0.5,1.2v0.1c-0.2,0.4-0.4,0.9-0.6,1.3c0,0.1-0.1,0.1-0.1,0.2c-0.5,0.8-1,1.6-1.7,2.3l-0.3,0.3l-0.9,0.9
			c-0.3,0.3-0.6,0.6-1,0.8l-0.2,0.2c-0.3,0.2-0.6,0.4-0.8,0.6c-0.2,0.1-0.3,0.2-0.5,0.3c-0.3,0.1-0.5,0.3-0.8,0.5
			c-0.2,0.1-0.3,0.2-0.5,0.2s-0.6,0.3-0.9,0.4c-0.2,0.1-0.4,0.2-0.6,0.2c-0.3,0.1-0.6,0.2-1,0.3c-0.2,0.1-0.4,0.1-0.6,0.2l-1.2,0.3
			c-0.2,0-0.3,0.1-0.5,0.1l-1.7,0.3c-0.5,0.1-1,0.1-1.5,0.2h-1.9c-0.5,0-0.9-0.1-1.3-0.1H71c-0.4-0.1-0.7-0.1-1.1-0.2
			c-0.1,0-0.3-0.1-0.4-0.1s-0.4-0.1-0.6-0.2s-0.3-0.1-0.4-0.2s-0.3-0.1-0.5-0.2l-0.6-0.3l6.9,3.8c0.1,0.1,0.2,0.1,0.4,0.2
			c0.1,0,0.1,0,0.2,0.1c0.2,0.1,0.3,0.2,0.5,0.2s0.3,0.1,0.4,0.2s0.4,0.1,0.5,0.2s0.2,0.1,0.3,0.1h0.2c0.4,0.1,0.7,0.2,1.1,0.2h0.2
			c0.4,0.1,0.9,0.1,1.3,0.1h1.9c0.5,0,1-0.1,1.5-0.2c0.6-0.1,1.2-0.2,1.7-0.3c0.2,0,0.4-0.1,0.6-0.1c0.4-0.1,0.7-0.2,1-0.3
			c0.2-0.1,0.5-0.1,0.7-0.2l0.9-0.3c0.2-0.1,0.5-0.2,0.7-0.3l0.6-0.3c0.1,0,0.1-0.1,0.2-0.1s0.3-0.2,0.5-0.3s0.5-0.3,0.8-0.4
			s0.3-0.2,0.5-0.3c0.1-0.1,0.2-0.2,0.4-0.2c0.1-0.1,0.3-0.2,0.4-0.3s0.2-0.1,0.2-0.2c0.3-0.2,0.6-0.5,0.9-0.7l0.1-0.1
			c0.4-0.3,0.7-0.6,1-1l0.1-0.1l0,0c0.4-0.4,0.7-0.8,1-1.3l0,0c0.3-0.4,0.5-0.7,0.7-1.1c0,0,18592,9295.3,0.2-0.4
			c0.2-0.3,0.3-0.7,0.5-1v-0.1c0.1-0.3,0.3-0.6,0.4-0.9c0-0.1,0-0.1,0.1-0.2l0.3-0.9C97.4,110.8,97.5,110.4,97.7,110.1z"/>
		
			<linearGradient id="SVGID_2_" gradientUnits="userSpaceOnUse" x1="72.57" y1="-154.7" x2="99.94" y2="-154.7" gradientTransform="matrix(1 0 0 1 0 227)">
			<stop  offset="0" style="stop-color:#CCCCCC;stop-opacity:0.25"/>
			<stop  offset="1" style="stop-color:#999999;stop-opacity:0"/>
		</linearGradient>
		<path class="st2" d="M90.4,65.6c0,0.4-0.1,0.8-0.1,1.2c0,0.2-0.1,0.4-0.1,0.6s-0.1,0.7-0.2,1s-0.1,0.4-0.2,0.6l-0.3,0.9
			c-0.1,0.4-0.3,0.8-0.5,1.2c0,0.1,0,0.1-0.1,0.2c-0.1,0.3-0.2,0.5-0.4,0.8c-0.1,0.3-0.3,0.6-0.5,0.8c-0.1,0.2-0.2,0.3-0.3,0.5
			c-0.2,0.2-0.3,0.4-0.5,0.6s-0.4,0.5-0.6,0.7c-0.3,0.3-0.6,0.6-1,0.9l-0.2,0.2c-0.3,0.3-0.6,0.6-1,0.8c-0.1,0-0.1,0-0.1,0.1
			c-0.4,0.3-0.8,0.5-1.2,0.8c-0.1,0.1-0.2,0.1-0.3,0.1c-0.3,0.2-0.6,0.4-1,0.5c-0.3,0.1-0.5,0.2-0.8,0.3s-0.5,0.2-0.7,0.3
			s-0.6,0.2-1,0.3c-0.2,0.1-0.5,0.2-0.7,0.2l-1.2,0.3c-0.2,0-0.4,0.1-0.6,0.1c-0.6,0.1-1.2,0.2-1.9,0.3c-0.3,0-0.7,0.1-1.2,0.1
			s-0.9,0.1-1.2,0.1V88l6.9,3.8v-7.9c0.3,0,0.7-0.1,1.2-0.1s0.9-0.1,1.2-0.1c0.7-0.1,1.3-0.2,1.9-0.3c0.2,0,0.4-0.1,0.6-0.1l1.2-0.3
			c0.2-0.1,0.5-0.1,0.7-0.2c0.3-0.1,0.5-0.2,0.8-0.2l6.4,3.5c0.3,0,0.6,0,0.9,0.1h0.3c0.2,0,0.4,0,0.5,0.1c0.1,0,0.2,0,0.3,0.1
			c0.2,0,0.3,0.1,0.5,0.1c0.3,0.1,0.5,0.1,0.8,0.2h0.2c0.4,0.1,0.8,0.2,1.1,0.4c0.1,0,0.1,0,0.2,0.1c0.4,0.1,0.8,0.3,1.1,0.5
			c0.2,0.1,0.3,0.2,0.5,0.3c-2.3-1.3-4.6-2.5-6.9-3.8c-0.2-0.1-0.3-0.2-0.5-0.2h-0.1c-0.4-0.2-0.7-0.4-1.1-0.5
			c-0.1,0-0.1-0.1-0.2-0.1c-0.4-0.1-0.8-0.3-1.2-0.4l0,0c-0.1,0-0.3-0.1-0.4-0.1s-0.3-0.1-0.4-0.1h-0.1c-0.5-0.1-1-0.2-1.5-0.2
			c0.1,0,0.2-0.1,0.3-0.1c0.3-0.1,0.6-0.2,0.9-0.4c0.1,0,0.1,0,0.1-0.1c0.3-0.1,0.5-0.3,0.8-0.4c0.1-0.1,0.2-0.1,0.4-0.2
			c0.4-0.2,0.8-0.5,1.2-0.7l0,0l0.1-0.1c0.3-0.2,0.6-0.5,0.9-0.7l0.2-0.2c0.1,0,0.1-0.1,0.2-0.1c0.3-0.2,0.6-0.5,0.8-0.8l0.3-0.3
			c0.1-0.1,0.2-0.3,0.3-0.4s0.3-0.4,0.5-0.6c0-0.1,0.1-0.1,0.1-0.2s0.1-0.2,0.2-0.4c0.2-0.3,0.4-0.5,0.5-0.8c0-0.1,0-0.1,0.1-0.2
			l0.3-0.6c0-0.1,0.1-0.2,0.1-0.3c0.2-0.3,0.3-0.7,0.4-1v-0.1l0.3-0.9c0.1-0.2,0.1-0.4,0.2-0.6s0.1-0.6,0.2-0.9s0.1-0.4,0.1-0.6
			c0.1-0.4,0.1-0.7,0.1-1.1c0-0.2,0.1-0.4,0.1-0.6c0-0.6,0.1-1.2,0.1-1.8c0-4.2-1.2-7.4-3.5-9.5c-0.6-0.5-1.2-0.9-1.8-1.3
			c-2.3-1.3-4.6-2.5-6.9-3.8c0.6,0.4,1.2,0.8,1.8,1.3c2.4,2.1,3.6,5.3,3.5,9.5c0,0.6,0,1.2-0.1,1.8C90.4,65.3,90.4,65.4,90.4,65.6z"
			/>
		
			<linearGradient id="SVGID_3_" gradientUnits="userSpaceOnUse" x1="53.04" y1="-109.5" x2="69.01" y2="-109.5" gradientTransform="matrix(1 0 0 1 0 227)">
			<stop  offset="0" style="stop-color:#CCCCCC;stop-opacity:0.25"/>
			<stop  offset="1" style="stop-color:#999999;stop-opacity:0"/>
		</linearGradient>
		<path class="st3" d="M59.9,112.8v-1.5L69,110l-6.9-3.8l-9.1,1.3v1.5c0,6.4,2,11.2,6.1,14.5c0.7,0.6,1.5,1.1,2.3,1.5
			c2.3,1.3,4.6,2.5,6.9,3.8c-0.8-0.4-1.6-0.9-2.3-1.5C62,124,59.9,119.2,59.9,112.8z"/>
		
			<linearGradient id="SVGID_4_" gradientUnits="userSpaceOnUse" x1="54.45" y1="-169.852" x2="98.27" y2="-169.852" gradientTransform="matrix(1 0 0 1 0 227)">
			<stop  offset="0" style="stop-color:#CCCCCC;stop-opacity:0.25"/>
			<stop  offset="1" style="stop-color:#999999;stop-opacity:0"/>
		</linearGradient>
		<path class="st4" d="M55.5,61.2c-0.2,0.6-0.3,1.3-0.5,2v0.2l-0.3,2.1v0.1c-0.1,0.8-0.2,1.5-0.2,2.3l6.9,3.8c0-0.8,0.1-1.6,0.2-2.4
			v-0.1c0.1-0.7,0.2-1.5,0.3-2.2v-0.2c0.1-0.7,0.3-1.3,0.5-2c0-0.1,0-0.2,0.1-0.2l0.6-1.8c0-0.1,0.1-0.2,0.1-0.3
			c0.2-0.5,0.4-0.9,0.6-1.4c0-0.1,0.1-0.2,0.1-0.3l0.6-1.2c0.1-0.1,0.1-0.2,0.2-0.3c0.2-0.3,0.3-0.6,0.5-0.9l0.1-0.1
			c0.2-0.4,0.4-0.7,0.7-1c0.1-0.1,0.2-0.2,0.2-0.3c0.1-0.2,0.3-0.4,0.5-0.6l0.3-0.3c0.2-0.2,0.3-0.4,0.5-0.6s0.3-0.4,0.5-0.6
			l1.5-1.5c0.1-0.1,0.2-0.1,0.3-0.2c0.4-0.4,0.8-0.7,1.3-1c0.1-0.1,0.2-0.2,0.4-0.3c0.4-0.3,0.8-0.5,1.2-0.8
			c0.2-0.1,0.4-0.3,0.6-0.4c0.5-0.3,1.1-0.6,1.6-0.9c0.1,0,0.2-0.1,0.3-0.2c0.4-0.2,0.8-0.3,1.2-0.5s0.6-0.3,0.9-0.4
			c0.5-0.2,1-0.3,1.5-0.5c0.3-0.1,0.5-0.2,0.8-0.3c0.6-0.2,1.2-0.3,1.8-0.4c0.2,0,0.4-0.1,0.6-0.2c0.8-0.2,1.7-0.3,2.6-0.5
			c0.6-0.1,1.2-0.1,1.8-0.2h0.5c0.5,0,1.1-0.1,1.6-0.1h2.2c0.5,0,0.9,0.1,1.4,0.1h0.2l1.5,0.3c0.1,0,0.2,0.1,0.4,0.1
			c0.3,0.1,0.6,0.2,0.9,0.2l0.9,0.3c0.2,0.1,0.5,0.2,0.7,0.3s0.5,0.2,0.8,0.3s0.7,0.3,1,0.5l-6.9-3.8L91,44.5
			c-0.1-0.1-0.3-0.1-0.4-0.2c-0.3-0.1-0.6-0.3-0.9-0.4s-0.5-0.2-0.7-0.3l-0.9-0.3c-0.1,0-0.3-0.1-0.4-0.1s-0.3-0.1-0.5-0.1
			S87,43,86.8,43l-1.5-0.3h-0.2c-0.4-0.1-0.9-0.1-1.3-0.1h-2.2c-0.5,0-1.1,0-1.6,0.1h-0.5c-0.6,0.1-1.2,0.1-1.8,0.2
			c-0.9,0.1-1.7,0.3-2.6,0.5c-0.3,0.1-0.7,0.2-1,0.2c-0.5,0.1-1,0.2-1.4,0.4l-1.1,0.3c-0.4,0.1-0.8,0.3-1.2,0.4s-0.6,0.3-0.9,0.4
			s-0.8,0.3-1.2,0.5l0,0c-0.1,0-0.2,0.1-0.3,0.1c-0.6,0.3-1.1,0.6-1.7,0.9c-0.2,0.1-0.4,0.2-0.6,0.4c-0.3,0.2-0.7,0.4-1,0.6
			c-0.1,0.1-0.2,0.1-0.3,0.2S64.2,48,64.1,48c-0.5,0.3-1,0.7-1.4,1.1l-0.2,0.2l-0.1,0.1c-0.5,0.4-1,0.9-1.4,1.4l-0.4,0.4
			c-0.1,0.1-0.1,0.1-0.1,0.2c-0.2,0.2-0.3,0.4-0.4,0.5s-0.2,0.3-0.3,0.4s-0.3,0.4-0.4,0.6s-0.1,0.2-0.2,0.3c0,0.1,0,0.1-0.1,0.1
			c-0.2,0.4-0.4,0.7-0.7,1c0,0.1,0,0.1-0.1,0.2c-0.1,0.3-0.3,0.5-0.5,0.8c0,0.1,0,0.1-0.1,0.1c0,0.1-0.1,0.1-0.1,0.2
			c-0.2,0.4-0.4,0.7-0.6,1.1c0,0.1-0.1,0.2-0.1,0.3c-0.2,0.4-0.4,0.9-0.6,1.4c0,0.1,0,0.1-0.1,0.1c0,0.1,0,0.1-0.1,0.2l-0.6,1.8
			L55.5,61.2z"/>
		
			<linearGradient id="SVGID_5_" gradientUnits="userSpaceOnUse" x1="67.4" y1="1940.2144" x2="98.3" y2="1940.2144" gradientTransform="matrix(1 0 0 1 0 227)">
			<stop  offset="0" style="stop-color:#CCCCCC;stop-opacity:0.25"/>
			<stop  offset="1" style="stop-color:#999999;stop-opacity:0"/>
		</linearGradient>
		<path class="st5" d="M97.7,110.1c0.1-0.3,0.2-0.7,0.2-1c0-0.2,0.1-0.4,0.1-0.6c0.1-0.4,0.1-0.8,0.1-1.2c0-0.2,0-0.4,0.1-0.6
			c0-0.6,0.1-1.2,0.1-1.9c0-5.2-1.3-8.9-4.1-11.2c-0.5-0.4-1-0.8-1.6-1.1l-6.9-3.8c0.6,0.3,1.1,0.7,1.6,1.1c2.7,2.3,4.1,6,4.1,11.2
			c0,0.6,0,1.3-0.1,1.9c0,0.2,0,0.4-0.1,0.6c0,0.4-0.1,0.8-0.1,1.2c0,0.2-0.1,0.5-0.1,0.7s-0.1,0.7-0.2,1s-0.1,0.5-0.2,0.7l-0.3,0.9
			c-0.1,0.4-0.3,0.8-0.5,1.2v0.1c-0.2,0.4-0.4,0.9-0.6,1.3c0,0.1-0.1,0.1-0.1,0.2c-0.5,0.8-1,1.6-1.7,2.3l-0.3,0.3l-0.9,0.9
			c-0.3,0.3-0.6,0.6-1,0.8l-0.2,0.2c-0.3,0.2-0.6,0.4-0.8,0.6c-0.2,0.1-0.3,0.2-0.5,0.3c-0.3,0.1-0.5,0.3-0.8,0.5
			c-0.2,0.1-0.3,0.2-0.5,0.2s-0.6,0.3-0.9,0.4c-0.2,0.1-0.4,0.2-0.6,0.2c-0.3,0.1-0.6,0.2-1,0.3c-0.2,0.1-0.4,0.1-0.6,0.2l-1.2,0.3
			c-0.2,0-0.3,0.1-0.5,0.1l-1.7,0.3c-0.5,0.1-1,0.1-1.5,0.2h-1.9c-0.5,0-0.9-0.1-1.3-0.1H71c-0.4-0.1-0.7-0.1-1.1-0.2
			c-0.1,0-0.3-0.1-0.4-0.1s-0.4-0.1-0.6-0.2s-0.3-0.1-0.4-0.2s-0.3-0.1-0.5-0.2l-0.6-0.3l6.9,3.8c0.1,0.1,0.2,0.1,0.4,0.2
			c0.1,0,0.1,0,0.2,0.1c0.2,0.1,0.3,0.2,0.5,0.2s0.3,0.1,0.4,0.2s0.4,0.1,0.5,0.2s0.2,0.1,0.3,0.1h0.2c0.4,0.1,0.7,0.2,1.1,0.2h0.2
			c0.4,0.1,0.9,0.1,1.3,0.1h1.9c0.5,0,1-0.1,1.5-0.2c0.6-0.1,1.2-0.2,1.7-0.3c0.2,0,0.4-0.1,0.6-0.1c0.4-0.1,0.7-0.2,1-0.3
			c0.2-0.1,0.5-0.1,0.7-0.2l0.9-0.3c0.2-0.1,0.5-0.2,0.7-0.3l0.6-0.3c0.1,0,0.1-0.1,0.2-0.1s0.3-0.2,0.5-0.3s0.5-0.3,0.8-0.4
			s0.3-0.2,0.5-0.3c0.1-0.1,0.2-0.2,0.4-0.2c0.1-0.1,0.3-0.2,0.4-0.3s0.2-0.1,0.2-0.2c0.3-0.2,0.6-0.5,0.9-0.7l0.1-0.1
			c0.4-0.3,0.7-0.6,1-1l0.1-0.1l0,0c0.4-0.4,0.7-0.8,1-1.3l0,0c0.3-0.4,0.5-0.7,0.7-1.1c0,0,18592,9295.3,0.2-0.4
			c0.2-0.3,0.3-0.7,0.5-1v-0.1c0.1-0.3,0.3-0.6,0.4-0.9c0-0.1,0-0.1,0.1-0.2l0.3-0.9C97.4,110.8,97.5,110.4,97.7,110.1z"/>
		
			<linearGradient id="SVGID_6_" gradientUnits="userSpaceOnUse" x1="72.57" y1="-154.7" x2="99.94" y2="-154.7" gradientTransform="matrix(1 0 0 1 0 227)">
			<stop  offset="0" style="stop-color:#CCCCCC;stop-opacity:0.25"/>
			<stop  offset="1" style="stop-color:#999999;stop-opacity:0"/>
		</linearGradient>
		<path class="st6" d="M90.4,65.6c0,0.4-0.1,0.8-0.1,1.2c0,0.2-0.1,0.4-0.1,0.6s-0.1,0.7-0.2,1s-0.1,0.4-0.2,0.6l-0.3,0.9
			c-0.1,0.4-0.3,0.8-0.5,1.2c0,0.1,0,0.1-0.1,0.2c-0.1,0.3-0.2,0.5-0.4,0.8c-0.1,0.3-0.3,0.6-0.5,0.8c-0.1,0.2-0.2,0.3-0.3,0.5
			c-0.2,0.2-0.3,0.4-0.5,0.6s-0.4,0.5-0.6,0.7c-0.3,0.3-0.6,0.6-1,0.9l-0.2,0.2c-0.3,0.3-0.6,0.6-1,0.8c-0.1,0-0.1,0-0.1,0.1
			c-0.4,0.3-0.8,0.5-1.2,0.8c-0.1,0.1-0.2,0.1-0.3,0.1c-0.3,0.2-0.6,0.4-1,0.5c-0.3,0.1-0.5,0.2-0.8,0.3s-0.5,0.2-0.7,0.3
			s-0.6,0.2-1,0.3c-0.2,0.1-0.5,0.2-0.7,0.2l-1.2,0.3c-0.2,0-0.4,0.1-0.6,0.1c-0.6,0.1-1.2,0.2-1.9,0.3c-0.3,0-0.7,0.1-1.2,0.1
			s-0.9,0.1-1.2,0.1V88l6.9,3.8v-7.9c0.3,0,0.7-0.1,1.2-0.1s0.9-0.1,1.2-0.1c0.7-0.1,1.3-0.2,1.9-0.3c0.2,0,0.4-0.1,0.6-0.1l1.2-0.3
			c0.2-0.1,0.5-0.1,0.7-0.2c0.3-0.1,0.5-0.2,0.8-0.2l6.4,3.5c0.3,0,0.6,0,0.9,0.1h0.3c0.2,0,0.4,0,0.5,0.1c0.1,0,0.2,0,0.3,0.1
			c0.2,0,0.3,0.1,0.5,0.1c0.3,0.1,0.5,0.1,0.8,0.2h0.2c0.4,0.1,0.8,0.2,1.1,0.4c0.1,0,0.1,0,0.2,0.1c0.4,0.1,0.8,0.3,1.1,0.5
			c0.2,0.1,0.3,0.2,0.5,0.3c-2.3-1.3-4.6-2.5-6.9-3.8c-0.2-0.1-0.3-0.2-0.5-0.2h-0.1c-0.4-0.2-0.7-0.4-1.1-0.5
			c-0.1,0-0.1-0.1-0.2-0.1c-0.4-0.1-0.8-0.3-1.2-0.4l0,0c-0.1,0-0.3-0.1-0.4-0.1s-0.3-0.1-0.4-0.1h-0.1c-0.5-0.1-1-0.2-1.5-0.2
			c0.1,0,0.2-0.1,0.3-0.1c0.3-0.1,0.6-0.2,0.9-0.4c0.1,0,0.1,0,0.1-0.1c0.3-0.1,0.5-0.3,0.8-0.4c0.1-0.1,0.2-0.1,0.4-0.2
			c0.4-0.2,0.8-0.5,1.2-0.7l0,0l0.1-0.1c0.3-0.2,0.6-0.5,0.9-0.7l0.2-0.2c0.1,0,0.1-0.1,0.2-0.1c0.3-0.2,0.6-0.5,0.8-0.8l0.3-0.3
			c0.1-0.1,0.2-0.3,0.3-0.4s0.3-0.4,0.5-0.6c0-0.1,0.1-0.1,0.1-0.2s0.1-0.2,0.2-0.4c0.2-0.3,0.4-0.5,0.5-0.8c0-0.1,0-0.1,0.1-0.2
			l0.3-0.6c0-0.1,0.1-0.2,0.1-0.3c0.2-0.3,0.3-0.7,0.4-1v-0.1l0.3-0.9c0.1-0.2,0.1-0.4,0.2-0.6s0.1-0.6,0.2-0.9s0.1-0.4,0.1-0.6
			c0.1-0.4,0.1-0.7,0.1-1.1c0-0.2,0.1-0.4,0.1-0.6c0-0.6,0.1-1.2,0.1-1.8c0-4.2-1.2-7.4-3.5-9.5c-0.6-0.5-1.2-0.9-1.8-1.3
			c-2.3-1.3-4.6-2.5-6.9-3.8c0.6,0.4,1.2,0.8,1.8,1.3c2.4,2.1,3.6,5.3,3.5,9.5c0,0.6,0,1.2-0.1,1.8C90.4,65.3,90.4,65.4,90.4,65.6z"
			/>
		
			<linearGradient id="SVGID_7_" gradientUnits="userSpaceOnUse" x1="53.04" y1="-109.5" x2="69.01" y2="-109.5" gradientTransform="matrix(1 0 0 1 0 227)">
			<stop  offset="0" style="stop-color:#CCCCCC;stop-opacity:0.25"/>
			<stop  offset="1" style="stop-color:#999999;stop-opacity:0"/>
		</linearGradient>
		<path class="st7" d="M59.9,112.8v-1.5L69,110l-6.9-3.8l-9.1,1.3v1.5c0,6.4,2,11.2,6.1,14.5c0.7,0.6,1.5,1.1,2.3,1.5
			c2.3,1.3,4.6,2.5,6.9,3.8c-0.8-0.4-1.6-0.9-2.3-1.5C62,124,59.9,119.2,59.9,112.8z"/>
		
			<linearGradient id="SVGID_8_" gradientUnits="userSpaceOnUse" x1="54.45" y1="-169.852" x2="98.27" y2="-169.852" gradientTransform="matrix(1 0 0 1 0 227)">
			<stop  offset="0" style="stop-color:#CCCCCC;stop-opacity:0.25"/>
			<stop  offset="1" style="stop-color:#999999;stop-opacity:0"/>
		</linearGradient>
		<path class="st8" d="M55.5,61.2c-0.2,0.6-0.3,1.3-0.5,2v0.2l-0.3,2.1v0.1c-0.1,0.8-0.2,1.5-0.2,2.3l6.9,3.8c0-0.8,0.1-1.6,0.2-2.4
			v-0.1c0.1-0.7,0.2-1.5,0.3-2.2v-0.2c0.1-0.7,0.3-1.3,0.5-2c0-0.1,0-0.2,0.1-0.2l0.6-1.8c0-0.1,0.1-0.2,0.1-0.3
			c0.2-0.5,0.4-0.9,0.6-1.4c0-0.1,0.1-0.2,0.1-0.3l0.6-1.2c0.1-0.1,0.1-0.2,0.2-0.3c0.2-0.3,0.3-0.6,0.5-0.9l0.1-0.1
			c0.2-0.4,0.4-0.7,0.7-1c0.1-0.1,0.2-0.2,0.2-0.3c0.1-0.2,0.3-0.4,0.5-0.6l0.3-0.3c0.2-0.2,0.3-0.4,0.5-0.6s0.3-0.4,0.5-0.6
			l1.5-1.5c0.1-0.1,0.2-0.1,0.3-0.2c0.4-0.4,0.8-0.7,1.3-1c0.1-0.1,0.2-0.2,0.4-0.3c0.4-0.3,0.8-0.5,1.2-0.8
			c0.2-0.1,0.4-0.3,0.6-0.4c0.5-0.3,1.1-0.6,1.6-0.9c0.1,0,0.2-0.1,0.3-0.2c0.4-0.2,0.8-0.3,1.2-0.5s0.6-0.3,0.9-0.4
			c0.5-0.2,1-0.3,1.5-0.5c0.3-0.1,0.5-0.2,0.8-0.3c0.6-0.2,1.2-0.3,1.8-0.4c0.2,0,0.4-0.1,0.6-0.2c0.8-0.2,1.7-0.3,2.6-0.5
			c0.6-0.1,1.2-0.1,1.8-0.2h0.5c0.5,0,1.1-0.1,1.6-0.1h2.2c0.5,0,0.9,0.1,1.4,0.1h0.2l1.5,0.3c0.1,0,0.2,0.1,0.4,0.1
			c0.3,0.1,0.6,0.2,0.9,0.2l0.9,0.3c0.2,0.1,0.5,0.2,0.7,0.3s0.5,0.2,0.8,0.3s0.7,0.3,1,0.5l-6.9-3.8L91,44.5
			c-0.1-0.1-0.3-0.1-0.4-0.2c-0.3-0.1-0.6-0.3-0.9-0.4s-0.5-0.2-0.7-0.3l-0.9-0.3c-0.1,0-0.3-0.1-0.4-0.1s-0.3-0.1-0.5-0.1
			S87,43,86.8,43l-1.5-0.3h-0.2c-0.4-0.1-0.9-0.1-1.3-0.1h-2.2c-0.5,0-1.1,0-1.6,0.1h-0.5c-0.6,0.1-1.2,0.1-1.8,0.2
			c-0.9,0.1-1.7,0.3-2.6,0.5c-0.3,0.1-0.7,0.2-1,0.2c-0.5,0.1-1,0.2-1.4,0.4l-1.1,0.3c-0.4,0.1-0.8,0.3-1.2,0.4s-0.6,0.3-0.9,0.4
			s-0.8,0.3-1.2,0.5l0,0c-0.1,0-0.2,0.1-0.3,0.1c-0.6,0.3-1.1,0.6-1.7,0.9c-0.2,0.1-0.4,0.2-0.6,0.4c-0.3,0.2-0.7,0.4-1,0.6
			c-0.1,0.1-0.2,0.1-0.3,0.2S64.2,48,64.1,48c-0.5,0.3-1,0.7-1.4,1.1l-0.2,0.2l-0.1,0.1c-0.5,0.4-1,0.9-1.4,1.4l-0.4,0.4
			c-0.1,0.1-0.1,0.1-0.1,0.2c-0.2,0.2-0.3,0.4-0.4,0.5s-0.2,0.3-0.3,0.4s-0.3,0.4-0.4,0.6s-0.1,0.2-0.2,0.3c0,0.1,0,0.1-0.1,0.1
			c-0.2,0.4-0.4,0.7-0.7,1c0,0.1,0,0.1-0.1,0.2c-0.1,0.3-0.3,0.5-0.5,0.8c0,0.1,0,0.1-0.1,0.1c0,0.1-0.1,0.1-0.1,0.2
			c-0.2,0.4-0.4,0.7-0.6,1.1c0,0.1-0.1,0.2-0.1,0.3c-0.2,0.4-0.4,0.9-0.6,1.4c0,0.1,0,0.1-0.1,0.1c0,0.1,0,0.1-0.1,0.2l-0.6,1.8
			L55.5,61.2z"/>
		<g id="Chart">
			
				<linearGradient id="Path-2_1_" gradientUnits="userSpaceOnUse" x1="-207.8209" y1="627.6259" x2="-207.8209" y2="628.0659" gradientTransform="matrix(64 0 0 -82 13553.9902 51679.75)">
				<stop  offset="0" style="stop-color:#FF9FD6"/>
				<stop  offset="1" style="stop-color:#F623AB"/>
			</linearGradient>
			<polygon id="Path-2" class="st9" points="253.4,176.8 268.3,184.2 268.3,207.4 253.4,214.8 238.6,207.4 238.6,184.2 			"/>
			<polygon id="Path-2-2" class="st10" points="253.4,176.8 268.3,184.2 253.4,191.6 238.6,184.2 			"/>
		</g>
		<g id="Chart-2">
			
				<linearGradient id="Path-2-Copy-3_1_" gradientUnits="userSpaceOnUse" x1="218.847" y1="602.7955" x2="218.847" y2="603.2455" gradientTransform="matrix(64 0 0 -72 -13941.0098 43553.6602)">
				<stop  offset="0" style="stop-color:#96AFFF"/>
				<stop  offset="1" style="stop-color:#1024F3"/>
			</linearGradient>
			<polygon id="Path-2-Copy-3" class="st11" points="65.2,118.9 80,126.3 80,144.9 65.2,152.3 50.4,144.9 50.4,126.3 			"/>
			<polygon id="Path-2-Copy-4" class="st12" points="65.2,118.9 80,126.3 65.2,133.7 50.4,126.3 			"/>
		</g>
		<g id="Chart-3">
			
				<linearGradient id="Path-2-3_1_" gradientUnits="userSpaceOnUse" x1="96.2838" y1="707.6668" x2="96.2838" y2="708.1168" gradientTransform="matrix(64 0 0 -152 -5946.0098 107720.3906)">
				<stop  offset="0" style="stop-color:#9DF769"/>
				<stop  offset="1" style="stop-color:#10AF36"/>
			</linearGradient>
			<polygon id="Path-2-3" class="st13" points="216.2,85 231,92.4 231,148 216.2,155.5 201.3,148 201.3,92.4 			"/>
			<polygon id="Path-2-4" class="st14" points="216.2,85 231,92.4 216.2,99.8 201.3,92.4 			"/>
		</g>
		<g id="Chart-4">
			
				<linearGradient id="Path-2-5_1_" gradientUnits="userSpaceOnUse" x1="133.7634" y1="530.6758" x2="133.7634" y2="531.1259" gradientTransform="matrix(64 0 0 -82 -8546.0098 43741.75)">
				<stop  offset="0" style="stop-color:#FFEF4A"/>
				<stop  offset="0.86" style="stop-color:#F49918"/>
				<stop  offset="1" style="stop-color:#F38B10"/>
			</linearGradient>
			<polygon id="Path-2-5" class="st15" points="14.8,188.4 29.7,195.8 29.7,219 14.8,226.4 0,219 0,195.8 			"/>
			<polygon id="Path-2-6" class="st16" points="14.8,188.4 29.7,195.8 14.8,203.3 0,195.8 			"/>
		</g>
		<g id="Chart-5">
			
				<linearGradient id="Path-2-7_1_" gradientUnits="userSpaceOnUse" x1="-15.2217" y1="807.2628" x2="-15.2217" y2="807.8128" gradientTransform="matrix(64 0 0 -232 1138.9902 187461.125)">
				<stop  offset="0" style="stop-color:#ED69F7"/>
				<stop  offset="1" style="stop-color:#1090F3"/>
			</linearGradient>
			<polygon id="Path-2-7" class="st17" points="164.8,44.3 182.9,53.3 182.9,166.4 164.8,175.5 146.7,166.4 146.7,53.3 			"/>
			<polygon id="Path-2-8" class="st18" points="164.8,44.3 182.9,53.3 164.8,62.4 146.7,53.3 			"/>
		</g>
		<g id="Chart-6">
			
				<linearGradient id="Path-2-9_1_" gradientUnits="userSpaceOnUse" x1="-118.3405" y1="697.1268" x2="-118.3405" y2="697.5768" gradientTransform="matrix(64 0 0 -152 7638.9902 106210.3906)">
				<stop  offset="0" style="stop-color:#69F7AE"/>
				<stop  offset="1" style="stop-color:#10AEAF"/>
			</linearGradient>
			<polygon id="Path-2-9" class="st19" points="65.2,176.7 80,184.1 80,239.8 65.2,247.2 50.4,239.8 50.4,184.1 			"/>
			<polygon id="Path-2-10" class="st20" points="65.2,176.7 80,184.1 65.2,191.5 50.4,184.1 			"/>
		</g>
		<g id="Chart-7">
			
				<linearGradient id="Path-2-11_1_" gradientUnits="userSpaceOnUse" x1="16.5252" y1="612.0797" x2="16.5252" y2="612.5297" gradientTransform="matrix(64 0 0 -112 -941.0098 68744.0156)">
				<stop  offset="0" style="stop-color:#FF58BA"/>
				<stop  offset="1" style="stop-color:#991CC8"/>
			</linearGradient>
			<polygon id="Path-2-11" class="st21" points="116.6,139.1 131.4,146.5 131.4,183.7 116.6,191.1 101.8,183.7 101.8,146.5 			"/>
			<polygon id="Path-2-12" class="st22" points="116.6,139.1 131.4,146.5 116.6,154 101.8,146.5 			"/>
		</g>
		<g id="Chart-8">
			
				<linearGradient id="Path-2-Copy_1_" gradientUnits="userSpaceOnUse" x1="-95.8631" y1="582.2574" x2="-95.8631" y2="582.7074" gradientTransform="matrix(64 0 0 -92 6338.9902 53773.8398)">
				<stop  offset="0" style="stop-color:#ACF769"/>
				<stop  offset="1" style="stop-color:#97CE47"/>
			</linearGradient>
			<polygon id="Path-2-Copy" class="st23" points="203.8,163.8 218.6,171.2 218.6,199 203.8,206.5 188.9,199 188.9,171.2 			"/>
			<polygon id="Path-2-Copy-2" class="st24" points="203.8,163.8 218.6,171.2 203.8,178.6 188.9,171.2 			"/>
		</g>
		<g id="Chart-9">
			
				<linearGradient id="Path-2-Copy-3-2_1_" gradientUnits="userSpaceOnUse" x1="-30.6694" y1="486.9555" x2="-30.6694" y2="487.4055" gradientTransform="matrix(64 0 0 -72 2178.9902 35317.6602)">
				<stop  offset="0" style="stop-color:#69E0F7"/>
				<stop  offset="1" style="stop-color:#1090F3"/>
			</linearGradient>
			<polygon id="Path-2-Copy-3-2" class="st25" points="216.2,223.2 231,230.6 231,249.2 216.2,256.6 201.3,249.2 201.3,230.6 			"/>
			<polygon id="Path-2-Copy-4-2" class="st26" points="216.2,223.2 231,230.6 216.2,238 201.3,230.6 			"/>
		</g>
		<g id="Chart-10">
			
				<linearGradient id="Path-2-Copy-3-3_1_" gradientUnits="userSpaceOnUse" x1="-239.8553" y1="537.1167" x2="-239.8553" y2="537.5667" gradientTransform="matrix(64 0 0 -42 15503.9902 22828.3906)">
				<stop  offset="0" style="stop-color:#FF7AC3"/>
				<stop  offset="1" style="stop-color:#F51CBF"/>
			</linearGradient>
			<polygon id="Path-2-Copy-3-3" class="st27" points="153.2,250.2 168.1,257.6 168.1,262.3 153.2,269.7 138.4,262.3 138.4,257.6 
							"/>
			<polygon id="Path-2-Copy-4-3" class="st28" points="153.2,250.2 168.1,257.6 153.2,265 138.4,257.6 			"/>
		</g>
		
			<linearGradient id="SVGID_9_" gradientUnits="userSpaceOnUse" x1="-61.8257" y1="-533.8708" x2="67.1143" y2="-533.8708" gradientTransform="matrix(0.5 -0.87 0.87 0.5 603.6 440.27)">
			<stop  offset="0" style="stop-color:#C0DDE2"/>
			<stop  offset="1" style="stop-color:#DBF9EA"/>
		</linearGradient>
		<path class="st29" d="M165.5,113.4l0.3,89.2c0,4.7-2.5,9-6.5,11.3l-31.6,18.2c-3.4,2-7.8,0.8-9.8-2.6c-0.6-1.1-1-2.3-1-3.6
			c-0.1-29.7-0.2-59.5-0.2-89.2c0-4.7,2.5-9,6.5-11.3l31.6-18.3c3.5-1.9,7.8-0.7,9.8,2.7C165.2,110.9,165.5,112.2,165.5,113.4z"/>
		
			<linearGradient id="SVGID_10_" gradientUnits="userSpaceOnUse" x1="72.0913" y1="-541.8087" x2="-69.6487" y2="-518.5488" gradientTransform="matrix(0.5 -0.87 0.87 0.5 603.6 440.27)">
			<stop  offset="0" style="stop-color:#FFFFFF"/>
			<stop  offset="1" style="stop-color:#DBF9EA"/>
		</linearGradient>
		<path class="st30" d="M159.4,110.9c0.8-0.4,2.7-1.4,4.6-0.4c1.1,0.6,1.7,1.9,1.7,3.8l0.3,89.4c-0.2,4.1-2.4,7.9-5.9,10.2
			l-31.7,18.3c-1.2,0.9-2.8,1-4.2,0.4c-0.7-0.3-1.2-0.9-1.4-1.6c-0.3-0.8-0.5-1.6-0.5-2.5l-0.3-89.4l0,0c0-2,0.6-3.9,1.6-5.6
			c1-1.7,2.3-3.2,4-4.2l0,0L159.4,110.9z"/>
		
			<linearGradient id="SVGID_11_" gradientUnits="userSpaceOnUse" x1="-42.9988" y1="-509.9479" x2="-13.2488" y2="-505.6879" gradientTransform="matrix(0.5 -0.87 0.87 0.5 603.6 440.27)">
			<stop  offset="0" style="stop-color:#C0DDE2"/>
			<stop  offset="1" style="stop-color:#DBF9EA"/>
		</linearGradient>
		<path class="st31" d="M143.3,212.4c-2.1,1.4-3.5,3.7-3.6,6.2c0,2.3,1.6,3.2,3.6,2c2.1-1.4,3.5-3.7,3.6-6.2
			C146.9,212.2,145.3,211.3,143.3,212.4"/>
		
			<linearGradient id="SVGID_12_" gradientUnits="userSpaceOnUse" x1="176.1211" y1="-26.3112" x2="95.8811" y2="-103.1811" gradientTransform="matrix(1 0 0 1 0 227)">
			<stop  offset="0" style="stop-color:#25E581"/>
			<stop  offset="1" style="stop-color:#C4E138"/>
		</linearGradient>
		<polyline class="st32" points="125.3,221.1 163.7,198.9 163.5,119.5 125.1,141.7 125.3,221.1 		"/>
		
			<linearGradient id="SVGID_13_" gradientUnits="userSpaceOnUse" x1="86.3773" y1="-551.7506" x2="107.6573" y2="-545.8006" gradientTransform="matrix(0.5 -0.87 0.87 0.5 572.81 485.32)">
			<stop  offset="0" style="stop-color:#5D278F"/>
			<stop  offset="1" style="stop-color:#292376"/>
		</linearGradient>
		<path class="st33" d="M143.3,126.8l5.6-3.2c0.5-0.3,0.8-0.8,0.8-1.3c0-0.3-0.1-0.5-0.4-0.5c-0.1,0-0.3,0-0.4,0.1l-5.6,3.2
			c-0.5,0.3-0.8,0.8-0.8,1.3C142.5,126.8,142.8,127,143.3,126.8"/>
		
			<linearGradient id="SVGID_14_" gradientUnits="userSpaceOnUse" x1="86.987" y1="-553.9222" x2="108.257" y2="-547.9622" gradientTransform="matrix(0.5 -0.87 0.87 0.5 572.81 485.32)">
			<stop  offset="0" style="stop-color:#5D278F"/>
			<stop  offset="1" style="stop-color:#292376"/>
		</linearGradient>
		<path class="st34" d="M138.6,130c0.8-0.5,1.2-1.3,1.3-2.2c0-0.8-0.6-1.1-1.3-0.7c-0.8,0.5-1.2,1.3-1.3,2.2
			C137.4,130.1,137.9,130.4,138.6,130"/>
		<path class="st35" d="M152.6,192.8c0,24.4,19.8,44.3,44.2,44.3c0,0,0.1,0,0.1,0"/>
		<path class="st35" d="M156.7,164.7c-25.5-25.6-67-25.6-92.5-0.1c0,0,0,0-0.1,0.1"/>
		
			<linearGradient id="_Path__1_" gradientUnits="userSpaceOnUse" x1="249.66" y1="-117.1001" x2="300.62" y2="-117.1001" gradientTransform="matrix(1 0 0 1 0 227)">
			<stop  offset="0" style="stop-color:#6B7C92;stop-opacity:0.25"/>
			<stop  offset="1" style="stop-color:#6B7C92;stop-opacity:0"/>
		</linearGradient>
		<path id="_Path_" class="st36" d="M292.6,108.8h-0.2c0.1-0.6,0.2-1.2,0.2-1.8c0-5.5-4.4-9.9-9.8-9.9c-2.3,0-4.6,0.8-6.4,2.3
			c-1.3-2.8-4.1-4.5-7.2-4.5c-4,0-7.5,3-8,7h-0.1c-6.4,0-11.5,5.1-11.5,11.5s5.1,11.5,11.5,11.5h31.4c4.4,0,8-3.6,8-8
			c0.1-4.4-3.3-8-7.7-8.1C292.7,108.8,292.7,108.8,292.6,108.8z"/>
		
			<linearGradient id="_Path_2_1_" gradientUnits="userSpaceOnUse" x1="-501.908" y1="-188.6537" x2="-371.45" y2="-188.6537" gradientTransform="matrix(-1 0 0 1 -197.3 227)">
			<stop  offset="0" style="stop-color:#6B7C92;stop-opacity:0.25"/>
			<stop  offset="1" style="stop-color:#6B7C92;stop-opacity:0"/>
		</linearGradient>
		<path id="_Path_2" class="st37" d="M194.7,35.6h0.5c-0.3-1.5-0.5-3.1-0.5-4.7c0-14,11.3-25.3,25.2-25.3c0,0,0,0,0.1,0
			c5.9,0,11.7,2.1,16.2,5.9c5-10.2,17.3-14.4,27.5-9.4c6.2,3,10.5,9,11.3,15.8h0.2c16.2,0,29.4,13.2,29.4,29.4s-13.2,29.4-29.4,29.4
			c0,0,0,0,0,0h-80.5c-11.3,0-20.6-9.2-20.6-20.5S183.4,35.6,194.7,35.6z"/>
	</g>
</g>
<rect class="st38" width="304.6" height="269.7"/>
<g>
	<linearGradient id="SVGID_15_" gradientUnits="userSpaceOnUse" x1="11.4984" y1="136.0228" x2="298" y2="136.0228">
		<stop  offset="0" style="stop-color:#FFC71F"/>
		<stop  offset="1" style="stop-color:#FF056C"/>
	</linearGradient>
	<path class="st39" d="M166.1,4.2c-31.3,0-61.6,11.1-85.4,31.4l4.5,5.3c22.5-19.2,51.2-29.7,80.8-29.7C235,11.2,291,67.2,291,136
		c0,68.8-56,124.9-124.9,124.9c-34.8,0-68.5-14.9-92.1-40.5H18.5v-29.4h35.9V97.4H22.7V75.8c16.9-3.5,28.8-8,41.3-15.7h28.7v130.8
		h33.6v-7H99.7V53.1H62l-0.9,0.5C48.4,61.6,36.5,66,18.5,69.5l-2.8,0.6v34.3h31.7v79.5H11.5v43.4H71c24.8,25.8,59.3,40.5,95.1,40.5
		c72.7,0,131.9-59.2,131.9-131.9C298,63.3,238.9,4.2,166.1,4.2z"/>
	<g>
		<g>
			<path class="st40" d="M252.2,90.9c-4.4,7.8-16.2,12.8-25.2,15.7c-12.4,4.1-31.1,6.3-38.1-4.6c-5-7.8,6.9-21.1,22.3-30.5l0,0
				c5.5-3.4,11.7-6.4,17.9-8.3C247,57.5,260.3,76.6,252.2,90.9z"/>
			<g>
				<path class="st41" d="M186.6,65.4h28.6c0.8,0,1.4,0.6,1.4,1.4v14.5c0,0.8-0.6,1.4-1.4,1.4h-2.4l1.2,4.9l-7.3-4.9h-20
					c-0.8,0-1.4-0.6-1.4-1.4V66.8C185.2,66,185.8,65.4,186.6,65.4z"/>
				<g>
					<path class="st42" d="M188.2,73.1h25.3c0.3,0,0.6-0.3,0.6-0.6c0-0.3-0.3-0.6-0.6-0.6h-25.3c-0.3,0-0.6,0.3-0.6,0.6
						C187.6,72.8,187.9,73.1,188.2,73.1z"/>
					<path class="st42" d="M213.5,74.6h-25.3c-0.3,0-0.6,0.3-0.6,0.6c0,0.3,0.3,0.6,0.6,0.6h25.3c0.3,0,0.6-0.3,0.6-0.6
						C214.1,74.9,213.8,74.6,213.5,74.6z"/>
					<path class="st42" d="M213.5,77.4h-25.3c-0.3,0-0.6,0.3-0.6,0.6l0,0c0,0.3,0.3,0.6,0.6,0.6h25.3c0.3,0,0.6-0.3,0.6-0.6l0,0
						C214.1,77.7,213.8,77.4,213.5,77.4z"/>
					<path class="st42" d="M202,68.7h10.7c0.4,0,0.7-0.3,0.7-0.7c0-0.4-0.3-0.7-0.7-0.7H202c-0.4,0-0.7,0.3-0.7,0.7
						C201.3,68.4,201.6,68.7,202,68.7z"/>
					<path class="st42" d="M192.8,68.7h6.5c0.3,0,0.6-0.3,0.6-0.6v-0.3c0-0.3-0.3-0.6-0.6-0.6h-6.5c-0.3,0-0.6,0.3-0.6,0.6v0.3
						C192.2,68.5,192.5,68.7,192.8,68.7z"/>
				</g>
			</g>
			<g>
				<g>
					<g>
						<path class="st43" d="M236.1,70.5c-1.1-0.6-2.8,0.1-2.8,0.1c0.6-0.8,2.7-0.6,2.7-0.6c-4.3-0.9-5.1,1.8-5.2,2.1
							c-3.1-2.8-8,3.2-8,3.2l7.1,9.4c0,0,0.6-1.5,1.5-1c1.3,0.7,3.9-2.2,3.1-6.1c-0.1-0.4-0.2-0.8-0.3-1.2c0.3,0.1,0.6,0.2,0.9,0.2
							c0.8,0,1.9-2,2.1-2.6C237.4,73.4,237.2,71.2,236.1,70.5z"/>
						<path class="st44" d="M236.8,102.8c0.3-5.2-2.2-10.8-4.2-12.4c-0.3-0.3-0.6-0.4-0.9-0.5c-0.1,0-0.1-0.1-0.2-0.1
							c-0.6-0.5-1.4-2.3-1.5-5.1c0-0.3,0-0.6,0-0.9c0,0,0,0,0,0l-0.3,0.1l-0.3,0.1h0l-4.5,0.9c0,0.3,0.1,1.8,0.1,2.9
							c0,1.2-0.1,2.3-0.3,2.4c0,0-0.1,0-0.1,0c-0.2,0-0.4,0-0.4,0c0,0-1.7,2.4-3,5.6c0,0,0,0,0,0l0,0c-0.7,1.6-1.2,3.4-1.3,5.1
							c-0.1,1.1,0,2,0.2,3v0c0.3,1.4,0.7,2.8,0.9,4.4c2.1-0.5,4.2-1.1,6.1-1.7C230,105.6,233.5,104.3,236.8,102.8z"/>
						<path class="st45" d="M224.9,84.9c0,0,0.1,1.5,0.1,2.9c2.7-0.1,4.1-2.5,4.7-3.9L224.9,84.9z"/>
						<path class="st43" d="M230.1,83.4c0,0,1.4-2.2,1.7-4.1c0.2-1.4-0.4-6.4-5.5-5.6c0,0-1.5,0.1-2.8,1.1c-1.1,0.7-2.7,2.3-0.9,6.7
							l0.5,1.5L230.1,83.4z"/>
						<path class="st44" d="M224,86.2c0,0,6.3,0.1,6.3-3.8c0-3.9,0.8-6.6-3.2-6.8c-4-0.2-4.8,1.3-5.1,2.6
							C221.6,79.4,222.3,86.1,224,86.2z"/>
						<path class="st43" d="M224.2,75.4c0,0,1.7,4.6,4.4,5.3c2.7,0.7,3.8,0,3.8,0s-0.7-2.6-1.1-5.5
							C231.3,75.3,225.5,73.2,224.2,75.4z"/>
						<path class="st43" d="M224.6,75.8c0,0-1.3,1-1.6,2c-0.3,1-0.5,3.1-1.1,3c0,0-1.3-3.1,0.2-4.9
							C223.7,74.1,224.6,75.8,224.6,75.8z"/>
						<path class="st44" d="M239.8,101.3c-1.1,0.5-2.1,1-3.1,1.5c-0.6,0.3-1.2,0.5-1.8,0.8c-0.1,0-0.2,0.1-0.2,0.1
							c-0.7-2.7-1.4-4.8-1.4-4.8l-0.5-2l-0.9-4.1v0l-0.7-2.8c0,0,0,0,0.1,0c0.2,0,0.7,0.1,1.2,0.2c1,0.2,2.4,0.4,3.4,0.8
							c0,0,0,0,0,0c0,0,0,0,0.1,0c0.5,0.2,0.9,0.5,1.1,0.8c0,0,0,0,0,0c0,0,0,0,0,0c0,0,0,0,0,0c0,0,0.1,0.1,0.1,0.1
							C238.2,93.7,239,97.4,239.8,101.3z"/>
						<path class="st43" d="M224.4,76c0,0,1.2,4.8,4.6,6.4c0,0-3.4-3-3.6-6.2C225.1,73,224.4,76,224.4,76z"/>
						<path class="st44" d="M215.7,100.9c-0.1,0.4-0.2,0.9-0.3,1.3c-0.2,1.2-0.4,2.5-0.5,4c0,0-5.3-3.3-6.5-5c0-0.1,0.1-1.7-0.1-2.7
							c-0.1-0.4-0.1-0.7-0.3-0.9c-0.1-0.1-0.1-0.2-0.2-0.2c0,0,0,0,0,0c-0.3-0.3-0.6-0.5-0.9-0.8c-0.3-0.2-0.6-0.4-0.7-0.4
							c0,0,0,0,0,0c0,0,0,0,0,0c-0.4,0.1-1.5,1.7-1.2,3c0.4,1.3,2,3,2,3s2.7,4.7,5.9,7.5c1.9-0.2,3.9-0.5,5.8-0.9
							c0.5-1.3,0.9-3.1,1.3-4.9v0c0.5-2.7,0.9-5.7,1.1-8.1l0,0v0c0.1-1.3,0.2-2.4,0.3-3.2c0-0.7,0.1-1.2,0.1-1.4c0-0.1,0-0.2,0-0.2
							s-0.1,0-0.2,0.1C220.4,91.6,217.3,93.8,215.7,100.9z"/>
						<path class="st46" d="M227,106.6c4.1-1.4,8.9-3.1,13.2-5.4c-0.8-3.6-1.9-7.6-2.8-9.3c0,0-0.1-0.1-0.1-0.1c0,0,0,0,0,0
							c0,0,0,0,0,0c0,0,0,0,0,0c-0.1-0.1-0.2-0.2-0.3-0.3c0,0,0,0,0,0c-0.3-0.2-0.6-0.4-0.9-0.5c0,0,0,0,0,0
							c-1.5-0.6-3.4-0.8-3.4-0.8s0,0,0,0c0,0,0,0.2-0.1,0.4c-0.1,0.5-0.3,1.4-0.6,2.2v0c-0.3,0.9-0.5,1.7-0.8,1.9
							c-0.6,0.5-8.8,1.4-9,0.4c-0.2-0.9,2.2-4.4,2.3-4.8c-0.7,0.1-2,0.2-2.5,0.3c-0.9,0.2-1.5,0.6-1.6,0.6c-1.1,0.8-3.7,3.4-4.7,9.7
							c0,0,0,0,0,0c0.2,0.2,1.4,1.8,3.1,2.3c0,0,0.1,0,0.1,0c-0.1,1.5-0.4,3.7-0.6,5.6C221.4,108.2,224.3,107.4,227,106.6z"/>
						<g>
							<path class="st41" d="M210.8,97.7l-2.9,0.9c-0.1,0-0.2,0-0.2-0.1l-1.7-5.6c0-0.1,0-0.2,0.1-0.2l2.9-0.9c0.1,0,0.2,0,0.2,0.1
								l1.7,5.6C210.9,97.5,210.9,97.6,210.8,97.7z"/>
							<path class="st47" d="M210,97.9l-2.7,0.8c-0.2,0.1-0.4,0-0.4-0.2l-1.6-5.3c-0.1-0.2,0-0.4,0.2-0.4l2.7-0.8
								c0.2-0.1,0.4,0,0.4,0.2l1.6,5.3C210.3,97.7,210.2,97.8,210,97.9z"/>
						</g>
						<path class="st48" d="M234.7,103.7c-0.3-0.7-0.6-1.3-0.8-1.3c-0.2,0-0.9,1-1.5,2.2C233.2,104.4,233.9,104,234.7,103.7z"/>
						<path class="st44" d="M206,96.3c0,0,0.9-0.8,1.7,0c0.8,0.8-0.3,2.2-1,2.5c-0.8,0.3-1,0.5-1,0.5L206,96.3z"/>
					</g>
				</g>
				<path class="st49" d="M225.2,83.9c0,0-0.1,0.5-1.3,0.4c0,0-1-0.1-0.9-0.6C223,83.7,223.9,83.3,225.2,83.9z"/>
			</g>
		</g>
		<g>
			<polygon class="st50" points="153.6,73.3 163.3,76.5 157.5,70.8 156.9,72.2 154.4,72.2 			"/>
			<polygon class="st41" points="163.3,76.5 155.7,70.7 147.6,68.9 			"/>
			<polygon class="st41" points="157.5,70.8 163.3,76.5 159.4,68.5 			"/>
		</g>
		<g>
			<path class="st40" d="M75.5,202.1l166.1-0.1c0,0,24.3-34.7,12-61.9c-6.8-15.1-28.2-24.3-56.3-17.5c-20.7,5-36.4-12.4-54.3-15.1
				c-0.4-0.1-0.8-0.1-1.3-0.2c-8.9-1-18.3,1.8-29.3,12.7c-7.9,7.9-10.9,33-27.6,31.6C53.1,149,46.6,193.1,75.5,202.1z"/>
			<g>
				<path class="st51" d="M176.8,156l1.3,7.3v0l3.6,20.1l3.2,18c0,0.3,0.3,0.5,0.6,0.5c0.3,0,0.4-0.2,0.4-0.5l-2.7-20.4l-2.9-21.8
					l-0.4-3.3L176.8,156z"/>
			</g>
			<g>
				<path class="st51" d="M109.7,201.9c0.3,0,0.5-0.2,0.6-0.5l2.8-16l4.1-23l1.1-6.4l-2.9-0.1l-0.5,3.7l-3.5,26.2l-2.1,15.6
					C109.3,201.7,109.5,201.9,109.7,201.9z"/>
			</g>
			<g>
				<path class="st52" d="M131.5,162c-0.2-5.7-0.7-10.6-1.3-14.1c-1-5.5-1.8-8.7-1.8-8.7c-0.1-0.5-1.9-2.4-6-2.4
					c-4,0.1-3.6,2.6-3.6,2.6l0,0c0,0.1,0,0.2,0,0.2c0,0.1,3.7,13.5,3.6,30.8c0,0.2,0,0.7,0,0.9c0,0,9.3,0.2,9.3,0
					C132,169.9,131.9,165.8,131.5,162z"/>
				<path class="st53" d="M132.7,170.4c0,0.2-0.1,0.4-0.3,0.4h0c-0.2,0-0.3-0.2-0.3-0.4h-8c0,0.2-0.1,0.4-0.3,0.4h0
					c-0.2,0-0.3-0.2-0.3-0.4c0-4.9-0.2-9.6-0.7-13.6c-1.1-10.2-3-17-3.1-17.1c0-0.1,0-0.1,0-0.2c0,0-0.4-2.6,3.6-2.6
					c4-0.1,5.8,1.9,6,2.4c0,0,0.5,1.8,1.1,5c0.2,1.1,0.4,2.3,0.7,3.7c0.6,3.4,1.1,8.4,1.3,14.1C132.9,165.8,133,168.9,132.7,170.4z"
					/>
				<path class="st54" d="M132.7,170.4c0,0.2-0.1,0.4-0.3,0.4h0c-0.2,0-0.3-0.2-0.3-0.4h-8c0,0.2-0.1,0.4-0.3,0.4h0
					c-0.2,0-0.3-0.2-0.3-0.4c0-4.9-0.2-9.6-0.7-13.6c1.3-6.5,6.4-11.4,7.6-12.5c0.2,1.1,0.4,2.3,0.7,3.7c0.6,3.4,1.1,8.4,1.3,14.1
					C132.9,165.8,133,168.9,132.7,170.4z"/>
				<g>
					<path class="st52" d="M124.7,170.3L124.7,170.3C124.7,170.3,124.7,170.3,124.7,170.3L124.7,170.3c0-0.1,0.1-0.2,0.1-0.2
						c0.3-0.3,1.2-0.2,2.4-0.2c1.3,0,3,0,4.7-0.3c0.9-0.2,0.3-6.8-0.3-12.9c-0.1-1-0.2-1.9-0.2-2.4l0,0l0,0
						c-0.4-5.3-2.7-14.6-2.7-14.7c-0.1-0.4-1.5-1.8-4.5-1.8c-1.1,0-1.9,0.3-2.4,0.8c-0.5,0.5-0.4,1.2-0.4,1.2c0,0.1,0,0.1,0,0.2
						c0,0.1,2.1,12.1,2.4,15C124.4,159.8,124.6,169.7,124.7,170.3C124.6,170.3,124.6,170.3,124.7,170.3L124.7,170.3L124.7,170.3z
						 M126.5,169.8c-0.9,0-1.5,0-1.7,0.3c0,0,0,0,0,0c0-0.2,0-0.7,0-1.5c0-0.9-0.1-2.4-0.1-4.1c-0.1-2.9-0.3-6.9-0.6-9.5
						c-0.3-3-2.4-15-2.4-15c0,0,0-0.1,0-0.2c0,0-0.1-0.6,0.4-1.1c0.4-0.5,1.2-0.8,2.3-0.8c0,0,0.1,0,0.1,0c2.8,0,4.1,1.4,4.2,1.7
						c0,0.1,2.3,9.4,2.7,14.6c0,0.5,0.1,1.3,0.2,2.4c0.2,2.3,0.5,5.4,0.7,8.1c0.2,3.9,0,4.7-0.3,4.8c-1.7,0.3-3.3,0.3-4.6,0.3
						C126.9,169.8,126.7,169.8,126.5,169.8z"/>
				</g>
				<path class="st53" d="M123,170.9h31.3c0,0-0.7-3-18.9-2.5C122.6,168.7,123,170.9,123,170.9z"/>
				<g>
					<path class="st52" d="M120.5,201.7c3.6-18.4,2.7-29.7,2.7-29.8c0-0.3,0.5-0.5,0.8-0.5c0.3,0,1.5-0.1,1.7,0.2
						c0.2,0.3,0.9,14.2-4.5,30.2H120.5z"/>
				</g>
				<g>
					<path class="st52" d="M149.7,201.7c-3.6-18.4-2.7-29.7-2.7-29.8c0-0.3-0.5-0.5-0.8-0.5c-0.3,0-1.5-0.1-1.7,0.2
						c-0.2,0.3-0.9,14.2,4.5,30.2H149.7z"/>
				</g>
				<g>
					<path class="st51" d="M155.5,201.7c-3.6-18.4-2.7-29.7-2.7-29.8c0-0.3-0.5-0.5-0.8-0.5c-0.3,0-1.5-0.1-1.7,0.2
						c-0.2,0.3-0.9,14.2,4.5,30.2H155.5z"/>
				</g>
				<g>
					<path class="st51" d="M126.3,201.7c3.6-18.4,2.7-29.7,2.7-29.8c0-0.3,0.5-0.5,0.8-0.5c0.3,0,1.5-0.1,1.7,0.2
						c0.2,0.3,0.9,14.2-4.5,30.2H126.3z"/>
				</g>
				<path class="st52" d="M154.1,171.8h-30.9c-0.5,0-0.9-0.4-0.9-0.9v0c0-0.5,0.4-0.9,0.9-0.9h30.9c0.5,0,0.9,0.4,0.9,0.9l0,0
					C155,171.4,154.6,171.8,154.1,171.8z"/>
			</g>
			<g>
				<path class="st44" d="M153.2,143.5l10.4-2.3l0.6,1.5c0,0-11.5,6.8-12.6,6.5C150.6,148.9,153.2,143.5,153.2,143.5z"/>
				<path class="st44" d="M143.8,190.6c-0.3,0.3-0.3,0.6-0.2,1c0,0,0,0,0,0c0.2,0.7,1,1.4,1.9,2.1c0.1,0.1,0.2,0.2,0.3,0.3
					c0,0,0,0,0.1,0.1c0,0,0,0,0.1,0c0.9,0.8,0.5,1,2.1,2.6c1.7,1.8,3,1.9,3.3,1.7c0.3-0.1-0.3-1.1-1-2.2c0-0.1-0.1-0.1-0.1-0.2
					c-0.1-0.1-0.2-0.3-0.3-0.4c-0.8-1.3-0.6-1.9-0.4-3.9c0.1-1.6,2.5-8.8,2.5-8.8l-3.4-0.6c0,0-1,5.8-2.1,6.7
					c-0.6,0.5-1.3,0.5-1.8,0.8c0,0-0.1,0-0.1,0.1C144.4,190.1,144,190.3,143.8,190.6z"/>
				<path class="st55" d="M143.8,190.6c-0.3,0.3-0.3,0.6-0.2,1c0,0,0,0,0,0c0.3,0.7,1.1,1.4,1.9,2.1c0.1,0.1,0.2,0.2,0.3,0.3
					c0,0,0,0,0.1,0.1c0,0,0,0,0.1,0c0.9,0.8,0.5,1,2.1,2.6c1.7,1.8,3,1.9,3.3,1.7c0.3-0.1-0.3-1.1-1-2.2c-0.3-0.1-1.9-0.8-3.1-2.3
					c-1.1-1.3-1.8-3.1-2.5-4.1c0,0-0.1,0-0.1,0.1C144.4,190.1,144,190.3,143.8,190.6z"/>
				<path class="st44" d="M170.8,188.5c0.2,1,1.7,0.9,3.3,0.5c1.6-0.4,1.3,0.1,3.6-0.2c2.3-0.3,3.1-1.1,3.1-1.5
					c0.1-0.3-1.1-0.4-2.3-0.6c-0.2,0-0.3,0-0.5-0.1c-1.4-0.2-2.4-1.1-3.7-1.8c-1.2-0.7-3-3.6-3-3.6l-3.2,0.3c0,0,1.7,2.6,2.3,3.7
					c0.4,0.7,0.4,1.5,0.3,2.2C170.7,187.8,170.7,188.1,170.8,188.5z"/>
				<path class="st55" d="M174.1,189c1.6-0.4,1.3,0.1,3.6-0.2c2.3-0.3,3.1-1.1,3.1-1.5c0.1-0.3-1.1-0.4-2.3-0.6l0,0c0,0-1.4,1-3.4,1
					c-1.6,0-3.3-0.4-4.4-0.4c0,0.4,0,0.7,0,1.1C171,189.5,172.5,189.4,174.1,189z"/>
				<path class="st44" d="M163.6,141.3c0,0,0.8-1.9,1.6-2c0.8-0.1,3.5-0.5,3.7-0.1c0.2,0.4,0,1.8-0.6,2.3c-0.6,0.5-4.1,1.3-4.1,1.3
					L163.6,141.3z"/>
				<path class="st56" d="M158.5,167.9l-6.9,18.6c0,0-1.1,0.1-2.1-0.2c-0.9-0.3-2-1-2-1s1.7-17.9,4.9-21.6
					C155.5,160.1,158.5,167.9,158.5,167.9z"/>
				<path class="st55" d="M131.1,160.4c0,0,19.9-6.7,24.4-5.3c4.4,1.4,17.8,28,17.8,28s-0.3,0.4-1.1,0.7c-0.8,0.3-2.6,0.3-2.6,0.3
					s-12-10.3-13.5-13.3c-1.4-3-2-5.9-3.4-5.6c-1.4,0.3-18.5,7-22.3,3c-3.9-4-2.9-9.2-2.9-9.2L131.1,160.4z"/>
				<path class="st56" d="M143.2,129.1c0.3-0.7,0.7-1.8,0.8-3.9c0,0.2-0.4,2.8-1.4,4.3c-4.1,2.7-12.1,11.8-11.9,13.5
					c0,0-2.8-4.7-2.8-4.8c0,0-5.2-6.6,1-10.3c3.1-1.9,3.1-4.4,3-6.5c-0.1-2.1,0.8-11.3,7.1-8.9c0,0,1-0.4,1.4-0.4
					c0,0-0.4,0.1-0.6,0.3c0.7,0,1.8,0,2.6,0.5C144.7,114.2,146.7,125.8,143.2,129.1z"/>
				<path class="st44" d="M142.4,129.6c0,0-2,1.1-3.5,0.6c-1.4-0.4-2.4-2.2-2.3-2.2c0.6-0.1,0.8-1,0.8-4.5l0.3,0.1l4.6,0.9
					c0,0-0.1,1.4-0.1,2.8C142.1,128.4,142.2,129.5,142.4,129.6z"/>
				<path class="st57" d="M142.2,124.4c0,0-0.1,1.4-0.1,2.8c-2.6-0.1-3.9-2.4-4.5-3.7L142.2,124.4z"/>
				<path class="st56" d="M137.1,123c0,0-1.3-2.1-1.7-4c-0.2-1.3,0.4-6.1,5.3-5.4c0,0,1.4,0.1,2.7,1c1.1,0.7,2.6,2.2,0.9,6.5
					l-0.4,1.4L137.1,123z"/>
				<path class="st44" d="M143.1,125.7c0,0-6.1,0.1-6.1-3.7c0-3.8-0.8-6.3,3.1-6.6c3.9-0.2,4.6,1.2,5,2.5
					C145.3,119.2,144.7,125.6,143.1,125.7z"/>
				<path class="st56" d="M142.8,115.4c0,0-1.7,4.5-4.2,5.1c-2.6,0.7-3.7,0-3.7,0s0.5-2.7,0.9-5.4
					C135.8,115,141.6,113.3,142.8,115.4z"/>
				<path class="st56" d="M142.4,115.8c0,0,1.2,1,1.5,2c0.3,1,0.4,3,1,2.9c0,0,1.3-3-0.2-4.7C143.4,114,142.4,115.8,142.4,115.8z"/>
				<path class="st58" d="M128.9,146c-0.6-2.5,1.4-7.4,3.6-11.5c1.9-3.7,3.9-6.6,4.1-6.5c5.1,3,5.6,0.5,5.6,0.5s0,0,0,0
					c0,0,4.6,0.6,6,2.9c1.6,2.8,3.4,10.6,5.1,12.1c-0.3,0.8-0.2,1.3,0.1,2.3c0.1,0.2,0.1,0.4,0.2,0.6c0.3,0.7,0.6,1.3,0.9,1.8
					c-0.9,0.5-2.6,1.6-3.9,0.8c-1.9-1.1-3.4-4.6-4.3-5.9c0,0,0,0,0,0c-1.8,10.4,0.7,12.8-0.6,13.9c-1.3,1.2-3.2-0.6-7.4,1.3
					c-2.8,1.2-6.6,2.9-9.2,3.2c-1.4,0.2-2.4-0.1-2.7-1C125.4,157.8,130,150.8,128.9,146z"/>
				<path class="st49" d="M141.7,123.4c0,0,0.1,0.5,1.3,0.4c0,0,1-0.1,1-0.6C144,123.3,143,122.9,141.7,123.4z"/>
				<path class="st59" d="M126.4,160.5c0.3,0.9,1.3,1.1,2.7,1c1.8-0.8,9.5-3.8,9.4-5.8c-0.1-3-1.5-3.1-0.5-6.8
					c0.8-3-6.3-8.5-7.5-9.7c-2.1,4-2.2,4.2-1.6,6.8C130,150.8,125.4,157.8,126.4,160.5z"/>
				<path class="st44" d="M139.2,148.8c0,0,1.3-1,2.5-0.8c1.2,0.2,1.8,1.1,1.8,1.5c0,0.4-0.7,1.5-1.6,1.6c-0.9,0.1-3.6-0.6-3.6-0.6
					L139.2,148.8z"/>
				<path class="st58" d="M125.5,149.7c1.4-1.9,2.8-2.9,3.7-3.4c-0.2-0.6,5.7-7.9,5.7-9c0-1.1,1.6-9.3,1.6-9.3s-5,0.3-6.7,2.7
					C127.7,133.7,123.3,145.2,125.5,149.7z"/>
				<path class="st44" d="M129.2,146.3l9.9,2.6l-0.9,1.7c0,0-12.1-0.1-12.7-0.8C124.9,149,129.2,146.3,129.2,146.3z"/>
				<path class="st59" d="M146.3,143.1c0.8,1.4,2.3,4.8,4.3,5.9c1.3,0.7,3-0.3,3.9-0.8c-0.3-0.5-0.6-1.1-0.9-1.8
					c-0.7,0.2-1.6,0.4-2.1,0.5C150.3,147.3,146.3,143.1,146.3,143.1z"/>
			</g>
			<g>
				<path class="st60" d="M190.9,156l1.3,7.3v0l3.6,20.1l3.2,18c0,0.3,0.3,0.5,0.6,0.5c0.3,0,0.4-0.2,0.4-0.5l-2.7-20.4l-2.9-21.8
					l-0.4-3.3L190.9,156z"/>
			</g>
			<path class="st51" d="M192.1,163.3c-0.2-3.1,2-4.1,2-4.1l-0.4-3.3l-2.9,0.1L192.1,163.3z"/>
			<g>
				<g>
					<path class="st60" d="M93.5,201.9c0.3,0,0.5-0.2,0.6-0.5l2.8-16l4.1-23l1.1-6.4l-2.9-0.1l-0.5,3.7l-3.5,26.2l-2.1,15.6
						C93.1,201.7,93.3,201.9,93.5,201.9z"/>
				</g>
				<path class="st51" d="M98.7,159.6c1.9,0.8,2.3,2.8,2.3,2.8l1.1-6.4l-2.9-0.1L98.7,159.6z"/>
			</g>
			<g>
				<path class="st61" d="M156,153.5h-11.7l0,0c0-0.5,0.4-0.9,0.9-0.9H156V153.5z"/>
				<polygon class="st61" points="156,140.8 174,140.8 169.7,153.5 151.6,153.5 				"/>
				<polygon class="st62" points="174.3,140.8 170,153.5 151.8,153.5 156.3,140.8 				"/>
				<path class="st63" d="M164.6,147c-0.1,0.5-0.6,0.9-1.1,0.9c-0.5,0-0.8-0.4-0.7-0.9c0.1-0.5,0.6-0.9,1.1-0.9
					C164.4,146.1,164.7,146.5,164.6,147z"/>
				<polygon class="st61" points="174.3,140.8 170,153.5 161.5,153.5 171.6,140.8 				"/>
			</g>
			<g>
				<path class="st64" d="M91.7,103.8h29.2c0.8,0,1.5,0.7,1.5,1.5v14.8c0,0.8-0.7,1.5-1.5,1.5h-2.5l1.2,5l-7.5-5H91.7
					c-0.8,0-1.5-0.7-1.5-1.5v-14.8C90.3,104.5,90.9,103.8,91.7,103.8z"/>
				<g>
					<path class="st65" d="M93.4,110.4h25.8c0.4,0,0.6,0.3,0.6,0.6l0,0c0,0.4-0.3,0.6-0.6,0.6H93.4c-0.4,0-0.6-0.3-0.6-0.6l0,0
						C92.8,110.7,93,110.4,93.4,110.4z"/>
					<path class="st65" d="M93.4,113.3h25.8c0.4,0,0.6,0.3,0.6,0.6c0,0.4-0.3,0.6-0.6,0.6H93.4c-0.4,0-0.6-0.3-0.6-0.6
						C92.8,113.6,93,113.3,93.4,113.3z"/>
					<path class="st65" d="M93.4,116.1h25.8c0.4,0,0.6,0.3,0.6,0.6c0,0.4-0.3,0.6-0.6,0.6H93.4c-0.4,0-0.6-0.3-0.6-0.6
						C92.8,116.4,93,116.1,93.4,116.1z"/>
					<path class="st65" d="M118.4,107.3h-10.9c-0.4,0-0.8-0.3-0.8-0.8c0-0.4,0.3-0.8,0.8-0.8h10.9c0.4,0,0.8,0.3,0.8,0.8
						C119.1,106.9,118.8,107.3,118.4,107.3z"/>
					<path class="st65" d="M104.6,107.3H98c-0.3,0-0.6-0.3-0.6-0.6v-0.3c0-0.3,0.3-0.6,0.6-0.6h6.6c0.3,0,0.6,0.3,0.6,0.6v0.3
						C105.2,107,104.9,107.3,104.6,107.3z"/>
				</g>
			</g>
			<path class="st60" d="M90.8,158.5h111c1.4,0,2.5-1.1,2.5-2.5l0,0c0-1.4-1.1-2.5-2.5-2.5h-111c-1.4,0-2.5,1.1-2.5,2.5v0
				C88.3,157.4,89.4,158.5,90.8,158.5z"/>
			<g>
				<g>
					<path class="st66" d="M203.2,184.6c0,0,2.8-3.2,0.2-5.3c0,0-1.9-1.2-3.5-1.1c0,0,2.2,3.7,1.5,4.1c-0.7,0.4-2.2-4.3-2.2-4.3
						s-4.3-0.4-5.7,0.3c0,0,3.7,3,2.9,3.2c-0.8,0.2-4.8-2.8-4.8-2.8s-4,0.7-3.8,3.2c0.2,2.5,1.6,3.2,2.2,3.2
						c0.6-0.1,4.2-1.4,4.3-0.9c0.1,0.5-2.1,2.1-3.6,2.2c0,0,2.8,3.1,4.7,2.2c1.9-0.9,2.1-2.3,3.2-2.9c1.2-0.5,2.2-0.5,1.7,0
						c-0.5,0.5-2.6,1.1-3.3,2.3c-0.7,1.2-1.3,2,0.7,1.7c2-0.3,5.1-1.7,5.3-3.4C203.2,184.6,203.2,184.6,203.2,184.6z"/>
					<g>
						<path class="st66" d="M189.8,181.9c0,0,11-0.4,13.4,2.7c0,0,0.5,1.6,2.2,3.1l0.3,0.7c0,0-1.9-2-2.6-2.1
							C203,186.2,204.1,182.3,189.8,181.9z"/>
						<path class="st66" d="M205.4,187.7c0,0,2.4,1.7,2.5,4.9l-0.4,0c0,0-0.8-3.2-2.1-4.5C204,186.8,205.4,187.7,205.4,187.7z"/>
					</g>
				</g>
				<g>
					<path class="st67" d="M212.9,180.5c0,0-4.4-2.5-2.4-5.8c0,0,1.7-2.1,3.4-2.6c0,0-0.9,5,0,5.1c0.9,0.1,0.6-5.7,0.6-5.7
						s4.7-2.2,6.5-2.1c0,0-2.9,4.9-1.9,4.8c0.9-0.1,4.2-5.1,4.2-5.1s4.8-0.9,5.5,1.9c0.8,2.8-0.5,4.3-1.2,4.4
						c-0.7,0.2-5.3,0.1-5.1,0.7c0.1,0.6,3.2,1.5,4.9,1c0,0-1.9,4.7-4.4,4.4c-2.5-0.2-3.2-1.8-4.8-1.9c-1.5-0.1-2.7,0.3-1.9,0.7
						c0.8,0.4,3.4,0.1,4.6,1.2c1.2,1.1,2.2,1.7-0.1,2.2c-2.3,0.5-6.4,0.2-7.3-1.6C212.9,180.5,212.9,180.5,212.9,180.5z"/>
					<g>
						<path class="st66" d="M226.7,172c0,0-12.4,4-13.8,8.5c0,0,0.1,2-1.2,4.3v0.9c0,0,1.3-3,2-3.4C213.7,182.3,211,178.4,226.7,172
							z"/>
						<path class="st66" d="M211.7,184.8c0,0-1.9,2.9-0.8,6.4l0.5-0.1c0,0-0.5-3.9,0.5-5.8C212.9,183.3,211.7,184.8,211.7,184.8z"/>
					</g>
				</g>
				<g>
					<path class="st67" d="M205.9,177.1c0,0,5.8-3.3,3.1-7.7c0,0-2.2-2.7-4.5-3.4c0,0,1.2,6.6,0,6.8s-0.9-7.5-0.9-7.5
						s-6.1-3-8.6-2.7c0,0,3.8,6.5,2.6,6.3c-1.2-0.2-5.5-6.7-5.5-6.7s-6.3-1.2-7.3,2.6c-1,3.7,0.6,5.6,1.6,5.8
						c0.9,0.2,6.9,0.2,6.8,0.9s-4.2,2-6.5,1.3c0,0,2.5,6.1,5.8,5.8c3.3-0.3,4.3-2.3,6.3-2.5c2-0.2,3.5,0.4,2.5,0.9
						c-1,0.5-4.4,0.2-6.1,1.6c-1.6,1.4-3,2.2,0.1,2.9c3,0.6,8.5,0.2,9.6-2.1C205.9,177.1,205.9,177.1,205.9,177.1z"/>
					<g>
						<path class="st66" d="M187.7,165.9c0,0,16.3,5.3,18.2,11.2c0,0-0.1,2.6,1.6,5.7v1.2c0,0-1.7-4-2.6-4.5
							C204.8,179.4,208.4,174.3,187.7,165.9z"/>
						<path class="st66" d="M207.4,182.8c0,0,2.5,3.8,1.1,8.5l-0.6-0.2c0,0,0.6-5.1-0.7-7.7C205.8,180.8,207.4,182.8,207.4,182.8z"
							/>
					</g>
				</g>
				<path class="st58" d="M206.1,201.4c-6.3,0-11.4-5.1-11.4-11.4h22.9C217.5,196.2,212.4,201.4,206.1,201.4z"/>
				<path class="st68" d="M203.2,201.3c0.5,0.1,0.9,0.1,1.4,0.1c6.3,0,11.4-5.1,11.4-11.4h-2.8C213.3,195.8,208.9,200.6,203.2,201.3
					z"/>
				<path class="st58" d="M194.5,201.9h23.2l0,0c0-0.8-0.6-1.4-1.4-1.4h-20.4C195.1,200.5,194.5,201.2,194.5,201.9L194.5,201.9z"/>
				
					<rect x="194.4" y="189.9" transform="matrix(-1 -1.224647e-16 1.224647e-16 -1 412.2362 380.1874)" class="st47" width="23.5" height="0.4"/>
			</g>
		</g>
		<path class="st69" d="M268.8,202.4H45.2c-0.3,0-0.5-0.2-0.5-0.5l0,0c0-0.3,0.2-0.5,0.5-0.5h223.7c0.3,0,0.5,0.2,0.5,0.5l0,0
			C269.3,202.2,269.1,202.4,268.8,202.4z"/>
		<g>
			<polygon class="st50" points="169.8,127.7 160.1,130.9 165.9,125.2 166.5,126.6 169,126.6 			"/>
			<polygon class="st41" points="160.1,130.9 167.6,125.1 175.7,123.3 			"/>
			<polygon class="st41" points="165.9,125.2 160.1,130.9 164,122.9 			"/>
		</g>
	</g>
</g>
<rect class="st38" width="304.6" height="269.7"/>
<g>
	<linearGradient id="SVGID_16_" gradientUnits="userSpaceOnUse" x1="4.3686" y1="134.5837" x2="294.2174" y2="134.5837">
		<stop  offset="0" style="stop-color:#FF0668"/>
		<stop  offset="1" style="stop-color:#00B2E2"/>
	</linearGradient>
	<path class="st70" d="M163.8,4.2c-29,0-56.4,9.3-79.3,26.9l4.2,5.5c21.7-16.6,47.7-25.4,75.1-25.4c68.1,0,123.5,55.4,123.5,123.5
		c0,68.1-55.4,123.5-123.5,123.5c-34.1,0-67.9-15.2-91.2-40.1H14.7v-20.6c40.3-37.1,69.4-63.9,69.4-87.6c0-15.9-8.9-25.4-23.8-25.4
		C48.9,84.4,40,92,33.2,98.6L14,79.5c16.6-16.8,31.1-23.1,52.6-23.1c32,0,53.4,20.4,53.4,50.8c0,25.5-24.8,54.2-46.5,76.4l-6.9,7.1
		l9.8-1.2c7.9-1,19.9-2.1,27.2-2.1h24.2v34.1h6.9v-41h-31.1c-5,0-12,0.5-18.6,1.1c20.7-22,41.9-49,41.9-74.3c0-17-5.9-31.5-17-42
		C99,54.9,84,49.4,66.6,49.4c-24.3,0-41.1,7.8-59.9,27.7l-2.3,2.4l28.8,28.8l2.4-2.4c8-8,15.4-14.6,24.7-14.6
		c11.1,0,16.9,6.4,16.9,18.5c0,20.7-29.7,48.1-67.3,82.7l-2.1,1.9v30.5h61.9c24.5,25.5,58.7,40.1,94.1,40.1
		c71.9,0,130.4-58.5,130.4-130.4C294.2,62.7,235.7,4.2,163.8,4.2z"/>
</g>
<g>
	<g>
		<path class="st71" d="M109.3,209.3h118.8c11.6,0,21.7-8.5,23.3-20c0-0.3,0.1-0.5,0.1-0.8c0.5-5-0.5-10-4.6-13.8
			c-13-12.2,5.2-27.9,2.4-38.8c-2.7-10.9-12.2-4.6-29.8-21.7c-17.6-17.1-14.9-26.6-45.5-5.7c-24.6,16.8-54.1-1.9-68.7,5.4
			c-14.6,7.3,0,29-17.9,52.3c-11.3,14.7-2.8,28,5,35.9c2.6,2.6,5.6,4.5,9,5.8C103.9,208.9,106.6,209.3,109.3,209.3z"/>
		<path class="st72" d="M249.4,136c-2.7-10.9-12.2-4.6-29.8-21.7c-12-11.6-14.6-19.8-24.6-17.1c8,2.8,10.3,5.4,12.6,10.6
			c12.8,30-13.7,60.2,4.3,73.8c10,7.5-10.7,18.4-29.6,27.8h45.9c11.6,0,21.7-8.5,23.3-20c0-0.3,0.1-0.5,0.1-0.8
			c0.5-5-0.5-10-4.6-13.8C233.9,162.5,252.1,146.8,249.4,136z"/>
	</g>
	<g>
		<g>
			<g>
				<polygon class="st73" points="146.6,110.8 124.3,105.9 132.6,122.1 138,117.8 140.2,121.5 140.9,114.8 				"/>
				<polygon class="st74" points="140.3,114.4 140.9,114.8 140.2,121.5 138,117.8 124.3,105.9 				"/>
			</g>
			<polygon class="st75" points="135.6,119.7 140.2,121.5 138,117.8 			"/>
		</g>
		<g>
			<path class="st74" d="M141.7,122.3c-0.2-0.2-0.4-0.4-0.6-0.6l0.2-0.1c0.2,0.2,0.4,0.4,0.6,0.6L141.7,122.3z"/>
			<path class="st74" d="M200.4,156.3c-0.5,0-1.1-0.1-1.6-0.1l0-0.2c0.5,0.1,1.1,0.1,1.6,0.1L200.4,156.3z M197.1,156
				c-0.5-0.1-1.1-0.2-1.6-0.3l0-0.2c0.5,0.1,1.1,0.2,1.6,0.3L197.1,156z M193.9,155.3c-0.5-0.1-1.1-0.3-1.6-0.5l0.1-0.2
				c0.5,0.2,1,0.3,1.6,0.5L193.9,155.3z M190.7,154.3c-0.5-0.2-1-0.4-1.5-0.6l0.1-0.2c0.5,0.2,1,0.4,1.5,0.6L190.7,154.3z
				 M187.7,153c-0.5-0.2-1-0.5-1.5-0.7l0.1-0.2c0.5,0.3,1,0.5,1.5,0.7L187.7,153z M184.8,151.5c-0.5-0.3-0.9-0.6-1.4-0.9l0.1-0.2
				c0.5,0.3,0.9,0.6,1.4,0.9L184.8,151.5z M182,149.7c-0.4-0.3-0.9-0.7-1.3-1l0.1-0.2c0.4,0.3,0.9,0.7,1.3,1L182,149.7z
				 M179.4,147.6c-0.4-0.4-0.8-0.7-1.2-1.1l0.1-0.1c0.4,0.4,0.8,0.8,1.2,1.1L179.4,147.6z M177,145.3c-0.4-0.4-0.7-0.8-1.1-1.2
				l0.2-0.1c0.4,0.4,0.7,0.8,1.1,1.2L177,145.3z M174.9,142.8c-0.3-0.4-0.7-0.9-1-1.3l0.2-0.1c0.3,0.4,0.6,0.9,1,1.3L174.9,142.8z
				 M173,140.1c-0.1-0.1-0.1-0.2-0.2-0.3c-0.2-0.4-0.4-0.7-0.6-1.1l0.2-0.1c0.2,0.4,0.4,0.7,0.6,1.1c0.1,0.1,0.1,0.2,0.2,0.3
				L173,140.1z M171.4,137.2c-0.2-0.5-0.5-1-0.7-1.5l0.2-0.1c0.2,0.5,0.4,1,0.6,1.5L171.4,137.2z M170.2,134.1
				c-0.2-0.5-0.3-1.1-0.4-1.6l0.2,0c0.1,0.5,0.2,1.1,0.4,1.6L170.2,134.1z M171.4,131.1l0-0.2c0.6,0,1.1-0.1,1.6-0.2l0.1,0.2
				C172.6,131,172,131.1,171.4,131.1z M169.8,131.1c-0.6-0.1-1.1-0.1-1.6-0.3l0-0.2c0.5,0.1,1,0.2,1.5,0.2c0-0.2,0-0.5,0-0.7
				c0-0.3,0-0.6,0-0.9l0.2,0c0,0.3,0,0.6,0,0.9c0,0.2,0,0.5,0,0.7l-0.1,0L169.8,131.1z M166.5,130.3c-0.5-0.2-1-0.5-1.5-0.8l0.1-0.2
				c0.4,0.3,0.9,0.5,1.4,0.7L166.5,130.3z M174.6,130.2l-0.1-0.2c0,0,0.1-0.1,0.1-0.1c0.4-0.3,0.7-0.7,0.9-1.1l0.2,0.1
				c-0.3,0.5-0.6,0.9-1,1.2C174.7,130.2,174.6,130.2,174.6,130.2z M163.8,128.5c-0.4-0.4-0.7-0.8-1.1-1.3l0.2-0.1
				c0.3,0.5,0.7,0.9,1,1.3L163.8,128.5z M170.2,127.7l-0.2-0.1c0.2-0.5,0.5-1,0.9-1.4l0.2,0.1C170.7,126.7,170.4,127.2,170.2,127.7z
				 M175.9,127.4c0-0.3-0.1-0.7-0.3-1c-0.1-0.2-0.2-0.3-0.3-0.4l0.1-0.1c0.1,0.1,0.3,0.3,0.4,0.5c0.2,0.3,0.3,0.7,0.3,1.1
				L175.9,127.4z M152.4,126l0-0.2c0.5,0,1.1,0,1.6-0.1l0,0.2C153.5,126,152.9,126,152.4,126z M150.8,125.9c-0.6,0-1.1-0.1-1.6-0.2
				l0-0.2c0.5,0.1,1.1,0.1,1.6,0.2L150.8,125.9z M161.9,125.8c-0.2-0.5-0.5-1-0.7-1.5l0.2-0.1c0.2,0.5,0.4,1,0.7,1.5L161.9,125.8z
				 M155.7,125.8l0-0.2c0.4,0,0.8-0.1,1.3-0.2l0.3,0l0,0.2l-0.3,0C156.6,125.7,156.1,125.7,155.7,125.8z M172.4,125.5l-0.1-0.2
				c0.5-0.2,1.1-0.2,1.7-0.2l0,0.2C173.4,125.2,172.9,125.3,172.4,125.5z M147.5,125.4c-0.5-0.1-1.1-0.3-1.6-0.5l0.1-0.2
				c0.5,0.2,1,0.4,1.6,0.5L147.5,125.4z M159,125.3l0-0.2c0.6-0.1,1.1-0.2,1.6-0.4l0.1,0.2C160.1,125,159.6,125.2,159,125.3z
				 M162.1,124.3l-0.1-0.2c0.5-0.2,1-0.5,1.4-0.8l0.1,0.2C163.1,123.8,162.7,124.1,162.1,124.3z M144.4,124.2
				c-0.5-0.3-1-0.6-1.4-0.9l0.1-0.2c0.4,0.3,0.9,0.6,1.4,0.9L144.4,124.2z M160.7,122.7c-0.2-0.6-0.3-1.1-0.4-1.6l0.2,0
				c0.1,0.5,0.2,1,0.4,1.6L160.7,122.7z M164.8,122.4l-0.2-0.1c0.4-0.4,0.7-0.9,0.9-1.3l0.2,0.1
				C165.5,121.5,165.2,121.9,164.8,122.4z M160.3,119.5l-0.2,0c0-0.3,0-0.5,0.1-0.7c0-0.3,0.1-0.6,0.2-0.9l0.2,0.1
				c-0.1,0.3-0.2,0.6-0.2,0.9C160.4,119,160.3,119.2,160.3,119.5z M166.3,119.4l-0.2,0c0.1-0.3,0.1-0.6,0.1-0.8c0-0.3,0-0.5-0.1-0.8
				l0.2,0c0,0.3,0.1,0.5,0.1,0.8C166.3,118.8,166.3,119.1,166.3,119.4z M161.4,116.5l-0.2-0.1c0.4-0.5,0.8-0.8,1.3-1l0.1,0.2
				C162.2,115.8,161.8,116.1,161.4,116.5z M165.5,116.3c-0.2-0.3-0.5-0.6-0.8-0.7c-0.1-0.1-0.3-0.1-0.5-0.2l0-0.2
				c0.2,0,0.4,0.1,0.5,0.2c0.3,0.2,0.6,0.4,0.9,0.8L165.5,116.3z"/>
			<path class="st74" d="M202.3,156.4c-0.1,0-0.2,0-0.3,0l0-0.2c0.3,0,0.6,0,0.8,0l0,0.2C202.7,156.4,202.5,156.4,202.3,156.4z"/>
		</g>
	</g>
	<g>
		<g>
			<g>
				<path class="st76" d="M204.2,118.5c-0.3-0.2-0.6-0.3-0.9-0.4c5,3.3,6.7,9.9,3.8,15.2c-2.9,5.3-9.3,7.5-14.8,5.1
					c0.3,0.2,0.6,0.4,0.9,0.5c5.6,3,12.7,0.9,15.7-4.7C212,128.6,209.9,121.6,204.2,118.5z"/>
				<path class="st73" d="M202.5,117.6c-5.6-3-12.7-0.9-15.7,4.7c-3,5.6-0.9,12.7,4.7,15.7c5.6,3,12.7,0.9,15.7-4.7
					C210.2,127.7,208.1,120.6,202.5,117.6z M193,135.1c-4.1-2.2-5.6-7.2-3.4-11.3c2.2-4.1,7.2-5.6,11.3-3.4
					c4.1,2.2,5.6,7.2,3.4,11.3C202.1,135.8,197.1,137.3,193,135.1z"/>
				<path class="st73" d="M188.5,123.2c2.9-5.3,9.3-7.5,14.8-5.1c-0.3-0.2-0.6-0.4-0.9-0.5c-5.6-3-12.7-0.9-15.7,4.7
					c-3,5.6-0.9,12.7,4.7,15.7c0.3,0.2,0.6,0.3,0.9,0.4C187.4,135.2,185.6,128.6,188.5,123.2z"/>
				<path class="st77" d="M200.8,120.4c-4.1-2.1-9.1-0.5-11.2,3.6c-2.1,4.1-0.5,9.1,3.6,11.2c4.1,2.1,9.1,0.5,11.2-3.6
					C206.5,127.5,204.9,122.5,200.8,120.4z"/>
				
					<linearGradient id="SVGID_17_" gradientUnits="userSpaceOnUse" x1="235.8978" y1="127.5349" x2="255.7111" y2="109.1495" gradientTransform="matrix(0.8802 0.4747 -0.4747 0.8802 34.909 -96.3911)">
					<stop  offset="0" style="stop-color:#FFFFFF"/>
					<stop  offset="1" style="stop-color:#FFFFFF;stop-opacity:0"/>
				</linearGradient>
				<path class="st78" d="M204.3,123.8l-15.6,4.7c-0.1-1.5,0.1-3,0.9-4.5l11.5-3.5C202.5,121.3,203.6,122.5,204.3,123.8z"/>
				
					<linearGradient id="SVGID_18_" gradientUnits="userSpaceOnUse" x1="240.5668" y1="132.5666" x2="260.3802" y2="114.1812" gradientTransform="matrix(0.8802 0.4747 -0.4747 0.8802 34.909 -96.3911)">
					<stop  offset="0" style="stop-color:#FFFFFF"/>
					<stop  offset="1" style="stop-color:#FFFFFF;stop-opacity:0"/>
				</linearGradient>
				<path class="st79" d="M204.4,131.6c0,0.1-0.1,0.2-0.1,0.2l-11.1,3.3c-1.9-1-3.3-2.7-4-4.6l15.9-4.8
					C205.5,127.7,205.3,129.8,204.4,131.6z"/>
			</g>
			
				<rect x="184.6" y="135.4" transform="matrix(0.8802 0.4747 -0.4747 0.8802 92.6523 -70.902)" class="st73" width="4.2" height="25.4"/>
		</g>
		<g>
			<g>
				<g>
					<path class="st76" d="M241.3,131.8v-2.2c0-0.5-0.4-0.9-0.9-0.9h-1.1c-0.5,0-1-0.3-1.1-0.8c-0.1-0.4-0.3-0.8-0.5-1.2
						c-0.2-0.5-0.2-1,0.2-1.4l0.8-0.8c0.3-0.3,0.3-0.9,0-1.2l-1.5-1.5c-0.3-0.3-0.9-0.3-1.2,0l-0.8,0.8c-0.4,0.4-0.9,0.5-1.4,0.2
						c-0.4-0.2-0.8-0.3-1.2-0.5c-0.5-0.2-0.8-0.6-0.8-1.1V120c0-0.5-0.4-0.9-0.9-0.9h-2.2c-0.5,0-0.9,0.4-0.9,0.9v1.1
						c0,0.5-0.3,1-0.8,1.1c-0.4,0.1-0.8,0.3-1.2,0.5c-0.5,0.2-1,0.2-1.4-0.2l-0.8-0.8c-0.3-0.3-0.9-0.3-1.2,0l-1.5,1.5
						c-0.3,0.3-0.3,0.9,0,1.2l0.8,0.8c0.4,0.4,0.5,0.9,0.2,1.4c-0.2,0.4-0.3,0.8-0.5,1.2c-0.2,0.5-0.6,0.8-1.1,0.8h-1.1
						c-0.5,0-0.9,0.4-0.9,0.9v2.2c0,0.5,0.4,0.9,0.9,0.9h1.1c0.5,0,1,0.3,1.1,0.8c0.1,0.4,0.3,0.8,0.5,1.2c0.2,0.5,0.2,1-0.2,1.4
						l-0.8,0.8c-0.3,0.3-0.3,0.9,0,1.2l1.5,1.5c0.3,0.3,0.9,0.3,1.2,0l0.8-0.8c0.4-0.4,0.9-0.5,1.4-0.2c0.4,0.2,0.8,0.3,1.2,0.5
						c0.5,0.2,0.8,0.6,0.8,1.1v1.1c0,0.5,0.4,0.9,0.9,0.9h2.2c0.5,0,0.9-0.4,0.9-0.9v-1.1c0-0.5,0.3-1,0.8-1.1
						c0.4-0.1,0.8-0.3,1.2-0.5c0.5-0.2,1-0.2,1.4,0.2l0.8,0.8c0.3,0.3,0.9,0.3,1.2,0l1.5-1.5c0.3-0.3,0.3-0.9,0-1.2l-0.8-0.8
						c-0.4-0.4-0.5-0.9-0.2-1.4c0.2-0.4,0.3-0.8,0.5-1.2c0.2-0.5,0.6-0.8,1.1-0.8h1.1C240.9,132.6,241.3,132.2,241.3,131.8z
						 M229.8,133.3c-1.5,0-2.6-1.2-2.6-2.6c0-1.5,1.2-2.6,2.6-2.6c1.5,0,2.6,1.2,2.6,2.6C232.5,132.1,231.3,133.3,229.8,133.3z"/>
				</g>
				<g>
					<path class="st73" d="M252.1,145.4v-1.2c0-0.3-0.2-0.5-0.5-0.5H251c-0.3,0-0.6-0.2-0.6-0.5c-0.1-0.2-0.2-0.4-0.3-0.7
						c-0.1-0.3-0.1-0.6,0.1-0.8l0.4-0.4c0.2-0.2,0.2-0.5,0-0.7l-0.9-0.9c-0.2-0.2-0.5-0.2-0.7,0l-0.4,0.4c-0.2,0.2-0.5,0.3-0.8,0.1
						c-0.2-0.1-0.4-0.2-0.7-0.3c-0.3-0.1-0.5-0.4-0.5-0.6v-0.6c0-0.3-0.2-0.5-0.5-0.5h-1.2c-0.3,0-0.5,0.2-0.5,0.5v0.6
						c0,0.3-0.2,0.6-0.5,0.6c-0.2,0.1-0.4,0.2-0.7,0.3c-0.3,0.1-0.6,0.1-0.8-0.1l-0.4-0.4c-0.2-0.2-0.5-0.2-0.7,0l-0.9,0.9
						c-0.2,0.2-0.2,0.5,0,0.7l0.4,0.4c0.2,0.2,0.3,0.5,0.1,0.8c-0.1,0.2-0.2,0.4-0.3,0.7c-0.1,0.3-0.4,0.5-0.6,0.5h-0.6
						c-0.3,0-0.5,0.2-0.5,0.5v1.2c0,0.3,0.2,0.5,0.5,0.5h0.6c0.3,0,0.6,0.2,0.6,0.5c0.1,0.2,0.2,0.4,0.3,0.7
						c0.1,0.3,0.1,0.6-0.1,0.8l-0.4,0.4c-0.2,0.2-0.2,0.5,0,0.7l0.9,0.9c0.2,0.2,0.5,0.2,0.7,0l0.4-0.4c0.2-0.2,0.5-0.3,0.8-0.1
						c0.2,0.1,0.4,0.2,0.7,0.3c0.3,0.1,0.5,0.4,0.5,0.6v0.6c0,0.3,0.2,0.5,0.5,0.5h1.2c0.3,0,0.5-0.2,0.5-0.5v-0.6
						c0-0.3,0.2-0.6,0.5-0.6c0.2-0.1,0.4-0.2,0.7-0.3c0.3-0.1,0.6-0.1,0.8,0.1l0.4,0.4c0.2,0.2,0.5,0.2,0.7,0l0.9-0.9
						c0.2-0.2,0.2-0.5,0-0.7l-0.4-0.4c-0.2-0.2-0.3-0.5-0.1-0.8c0.1-0.2,0.2-0.4,0.3-0.7c0.1-0.3,0.4-0.5,0.6-0.5h0.6
						C251.9,145.9,252.1,145.6,252.1,145.4z M245.6,147.3c-1.4,0-2.6-1.2-2.6-2.6c0-1.4,1.2-2.6,2.6-2.6c1.4,0,2.6,1.2,2.6,2.6
						C248.2,146.2,247,147.3,245.6,147.3z"/>
				</g>
			</g>
			<g>
				<path class="st80" d="M256.5,131.3v-1.2c0-0.3-0.2-0.5-0.5-0.5h-0.6c-0.3,0-0.6-0.2-0.6-0.5c-0.1-0.2-0.2-0.4-0.3-0.7
					c-0.1-0.3-0.1-0.6,0.1-0.8l0.4-0.4c0.2-0.2,0.2-0.5,0-0.7l-0.9-0.9c-0.2-0.2-0.5-0.2-0.7,0l-0.4,0.4c-0.2,0.2-0.5,0.3-0.8,0.1
					c-0.2-0.1-0.4-0.2-0.7-0.3c-0.3-0.1-0.5-0.4-0.5-0.6v-0.6c0-0.3-0.2-0.5-0.5-0.5h-1.2c-0.3,0-0.5,0.2-0.5,0.5v0.6
					c0,0.3-0.2,0.6-0.5,0.6c-0.2,0.1-0.4,0.2-0.7,0.3c-0.3,0.1-0.6,0.1-0.8-0.1l-0.4-0.4c-0.2-0.2-0.5-0.2-0.7,0l-0.9,0.9
					c-0.2,0.2-0.2,0.5,0,0.7l0.4,0.4c0.2,0.2,0.3,0.5,0.1,0.8c-0.1,0.2-0.2,0.4-0.3,0.7c-0.1,0.3-0.4,0.5-0.6,0.5h-0.6
					c-0.3,0-0.5,0.2-0.5,0.5v1.2c0,0.3,0.2,0.5,0.5,0.5h0.6c0.3,0,0.6,0.2,0.6,0.5c0.1,0.2,0.2,0.4,0.3,0.7c0.1,0.3,0.1,0.6-0.1,0.8
					l-0.4,0.4c-0.2,0.2-0.2,0.5,0,0.7l0.9,0.9c0.2,0.2,0.5,0.2,0.7,0l0.4-0.4c0.2-0.2,0.5-0.3,0.8-0.1c0.2,0.1,0.4,0.2,0.7,0.3
					c0.3,0.1,0.5,0.4,0.5,0.6v0.6c0,0.3,0.2,0.5,0.5,0.5h1.2c0.3,0,0.5-0.2,0.5-0.5v-0.6c0-0.3,0.2-0.6,0.5-0.6
					c0.2-0.1,0.4-0.2,0.7-0.3c0.3-0.1,0.6-0.1,0.8,0.1l0.4,0.4c0.2,0.2,0.5,0.2,0.7,0l0.9-0.9c0.2-0.2,0.2-0.5,0-0.7l-0.4-0.4
					c-0.2-0.2-0.3-0.5-0.1-0.8c0.1-0.2,0.2-0.4,0.3-0.7c0.1-0.3,0.4-0.5,0.6-0.5h0.6C256.2,131.8,256.5,131.6,256.5,131.3z
					 M249.9,132c-0.7,0-1.3-0.6-1.3-1.3c0-0.7,0.6-1.3,1.3-1.3s1.3,0.6,1.3,1.3C251.3,131.4,250.7,132,249.9,132z"/>
			</g>
		</g>
	</g>
	<g>
		<path class="st76" d="M114.4,170.7c0,0-12.5-16.3-38.8-14.6C75.6,156.1,89.5,172.8,114.4,170.7z"/>
		<path class="st81" d="M106.8,159.6c0,0,2.7-20.3-17.1-37.8C89.6,121.8,87.7,143.5,106.8,159.6z"/>
		<path class="st81" d="M104.8,162.2c0,0,17.6-9.5,20-35.1C124.8,127.1,106.6,138,104.8,162.2z"/>
		<g>
			<g>
				<path class="st76" d="M108.8,160.8c0,0-14.6-9-9.3-13.5c4-3.4-3.9-7.8-0.9-9.5c3-1.7,3.6-0.1,2.6-4.5c-1.1-4.4,2.5-5.5,3.7-10
					c1.3-4.4,7.5-2.8,7.1,3.6c-0.5,6.4,1.4-0.4,3.5,2.3c2.1,2.7-4.8,13.2-2.2,12.3c2.6-0.9,4.6,1.1,3.7,4.2
					C114.9,153.2,108.8,160.8,108.8,160.8z"/>
				<path class="st82" d="M109.3,164C109.3,164,109.3,164,109.3,164c-1-5-2.2-11.6-2.7-18.2l0-0.1l0,0c-1.5-1.3-2.8-2.8-4.1-4.3
					c-0.4-0.5-0.8-1-1.3-1.5c0,0,0,0,0-0.1c0,0,0.1-0.1,0.1,0c0,0,0,0,0,0c0.4,0.5,0.8,0.9,1.2,1.4c1.2,1.4,2.4,2.8,3.8,4l0.2,0.2
					l0-0.3c-0.2-2.8-0.2-5.7-0.2-8.8l0-0.1c0,0-0.1,0-0.1,0c0,0,0,0,0,0c-1.2-1.8-2.2-3.7-3-5.6c0,0,0-0.1,0-0.1c0,0,0.1,0,0.1,0
					c0,0,0,0,0,0c0.7,1.8,1.7,3.5,2.7,5.2l0.2,0.3l0-0.4c0.1-2.9,0.2-5.9,0.5-9.2c0,0,0,0,0-0.1c0,0,0.1,0,0.1,0c0,0,0.1,0,0.1,0.1
					c-0.4,4.5-0.6,8.5-0.5,12.4l0,0.2l0.2-0.1c2.2-1.6,4.1-3.6,5.5-5.9c0,0,0,0,0.1,0c0,0,0.1,0,0.1,0.1c0,0,0,0.1,0,0.1
					c-1.5,2.4-3.4,4.5-5.8,6.1l-0.1,0l0,0.1c0,2.2,0.1,4.2,0.2,6.1l0,0l0,0c0,0,0,0.1,0,0.1l0,0l0,0c0.1,1.7,0.3,3.6,0.6,5.6l0,0.3
					l0.2-0.3c1.8-2.6,3.7-5.1,5.7-7.4c0,0,0.1,0,0.1,0c0,0,0.1,0,0.1,0.1c0,0,0,0,0,0.1c-2.1,2.5-4.1,5.1-6,7.8l0,0l0,0
					c0.5,3.5,1.1,7.3,2,11.9c0,0,0,0.1,0,0.1C109.4,164,109.4,164,109.3,164L109.3,164z"/>
			</g>
		</g>
		<g>
			<g>
				<path class="st73" d="M110.8,161.4c0,0-16.8,6.5-17.2-0.9c-0.3-5.5-9-1.7-8.5-5.3c0.5-3.6,2.2-3.1-2.1-5c-4.3-1.9-3-5.6-5.9-9.5
					c-2.9-3.9,2.5-8.1,7.5-3.6c5.1,4.5,0.6-1.4,4.2-1.4c3.6,0,7.9,12.4,8.8,9.7c0.9-2.8,3.9-3.2,5.9-0.4
					C108.3,151.4,110.8,161.4,110.8,161.4z"/>
				<path class="st82" d="M113.8,163C113.8,163,113.8,163,113.8,163c-4.9-2.4-11.1-5.6-16.9-9.4l0,0l-0.1,0c-2,0.4-4.2,0.6-6.2,0.7
					c-0.7,0-1.4,0.1-2,0.1c0,0-0.1,0-0.1,0c0,0,0-0.1,0.1-0.1c0,0,0,0,0,0c0.7,0,1.3-0.1,2-0.1c1.9-0.1,3.8-0.2,5.7-0.6l0.3-0.1
					l-0.3-0.2c-2.5-1.6-4.9-3.4-7.4-5.4l-0.1-0.1c0,0-0.1,0-0.1,0c0,0,0,0,0,0c-2.2-0.2-4.4-0.5-6.6-1.1c0,0-0.1,0-0.1-0.1
					c0,0,0-0.1,0.1-0.1c0,0,0,0,0.1,0c2,0.5,4,0.9,6.1,1l0.4,0l-0.3-0.3c-2.4-1.9-4.8-4-7.4-6.3c0,0,0,0,0-0.1c0,0,0-0.1,0.1-0.1
					c0,0,0.1,0,0.1,0c3.5,3.2,6.8,5.9,10,8.4l0.2,0.2l0-0.3c0.1-2.9-0.4-5.7-1.4-8.4c0,0,0-0.1,0-0.1c0,0,0.1,0,0.1,0
					c0,0,0,0,0.1,0.1c1,2.8,1.5,5.7,1.4,8.7l0,0.1l0.1,0c1.8,1.4,3.5,2.6,5.3,3.7l0,0l0,0c0,0,0.1,0,0.1,0l0,0l0,0
					c1.5,1,3.2,2,5,3.1l0.3,0.2l-0.1-0.3c-1-3.1-1.9-6.3-2.6-9.5c0,0,0-0.1,0-0.1c0,0,0.1,0,0.1,0c0,0,0,0,0,0.1
					c0.7,3.4,1.6,6.7,2.7,10l0,0l0,0c3.2,1.9,6.8,3.8,11.2,5.9C113.9,162.9,113.9,162.9,113.8,163C113.9,162.9,113.9,163,113.8,163
					L113.8,163z"/>
			</g>
		</g>
	</g>
	<g>
		<path class="st49" d="M232.8,146.5H101.1c-1.2,0-2.2,1-2.2,2.2l-0.3,64.2c0,1.2,1,2.2,2.2,2.2l131.9-1.1c1.2,0,2.2-1,2.2-2.2
			v-63.1C235,147.5,234,146.5,232.8,146.5z"/>
		<g>
			<path class="st83" d="M215.4,164.6h-99.1c-2.4,0-4.4,1.9-4.4,4.4v4.7c0,2.4,1.9,4.4,4.4,4.4h99.1c2.4,0,4.4-1.9,4.4-4.4V169
				C219.7,166.6,217.8,164.6,215.4,164.6z"/>
			<path class="st73" d="M137.4,164.6h-23.6c-1,0-1.9,0.8-1.9,1.9v9.7c0,1,0.8,1.9,1.9,1.9h23.6c1.1,0,1.9-0.9,1.9-1.9v-9.6
				C139.3,165.5,138.4,164.6,137.4,164.6z"/>
		</g>
		<path class="st81" d="M125.8,185.1h-7.5c-2.8,0-5.1,2.3-5.1,5.1v7.5c0,2.8,2.3,5.1,5.1,5.1h7.5c2.8,0,5.1-2.3,5.1-5.1v-7.5
			C130.9,187.3,128.6,185.1,125.8,185.1z"/>
		<path class="st76" d="M161,185.1h-7.5c-2.8,0-5.1,2.3-5.1,5.1v7.5c0,2.8,2.3,5.1,5.1,5.1h7.5c2.8,0,5.1-2.3,5.1-5.1v-7.5
			C166.1,187.3,163.8,185.1,161,185.1z"/>
		<g>
			<path class="st84" d="M133.2,187c-0.2,0-0.3-0.1-0.3-0.3c0-0.2,0.1-0.3,0.3-0.3H145c0.2,0,0.3,0.1,0.3,0.3c0,0.2-0.1,0.3-0.3,0.3
				H133.2z"/>
			<path class="st84" d="M133.2,189.8c-0.2,0-0.3-0.1-0.3-0.3s0.1-0.3,0.3-0.3H145c0.2,0,0.3,0.1,0.3,0.3s-0.1,0.3-0.3,0.3H133.2z"
				/>
			<path class="st84" d="M133.2,192.7c-0.2,0-0.3-0.1-0.3-0.3c0-0.2,0.1-0.3,0.3-0.3H145c0.2,0,0.3,0.1,0.3,0.3
				c0,0.2-0.1,0.3-0.3,0.3H133.2z"/>
			<path class="st84" d="M133.2,195.5c-0.2,0-0.3-0.1-0.3-0.3c0-0.2,0.1-0.3,0.3-0.3H145c0.2,0,0.3,0.1,0.3,0.3
				c0,0.2-0.1,0.3-0.3,0.3H133.2z"/>
			<path class="st84" d="M133.2,198.4c-0.2,0-0.3-0.1-0.3-0.3s0.1-0.3,0.3-0.3H145c0.2,0,0.3,0.1,0.3,0.3s-0.1,0.3-0.3,0.3H133.2z"
				/>
			<path class="st84" d="M133.2,201.3c-0.2,0-0.3-0.1-0.3-0.3s0.1-0.3,0.3-0.3h5c0.2,0,0.3,0.1,0.3,0.3s-0.1,0.3-0.3,0.3H133.2z"/>
		</g>
		<g>
			<path class="st84" d="M169,187c-0.2,0-0.3-0.1-0.3-0.3c0-0.2,0.1-0.3,0.3-0.3h11.8c0.2,0,0.3,0.1,0.3,0.3c0,0.2-0.1,0.3-0.3,0.3
				H169z"/>
			<path class="st84" d="M169,189.8c-0.2,0-0.3-0.1-0.3-0.3s0.1-0.3,0.3-0.3h11.8c0.2,0,0.3,0.1,0.3,0.3s-0.1,0.3-0.3,0.3H169z"/>
			<path class="st84" d="M169,192.7c-0.2,0-0.3-0.1-0.3-0.3c0-0.2,0.1-0.3,0.3-0.3h11.8c0.2,0,0.3,0.1,0.3,0.3
				c0,0.2-0.1,0.3-0.3,0.3H169z"/>
			<path class="st84" d="M169,195.5c-0.2,0-0.3-0.1-0.3-0.3c0-0.2,0.1-0.3,0.3-0.3h11.8c0.2,0,0.3,0.1,0.3,0.3
				c0,0.2-0.1,0.3-0.3,0.3H169z"/>
			<path class="st84" d="M169,198.4c-0.2,0-0.3-0.1-0.3-0.3s0.1-0.3,0.3-0.3h11.8c0.2,0,0.3,0.1,0.3,0.3s-0.1,0.3-0.3,0.3H169z"/>
			<path class="st84" d="M169,201.3c-0.2,0-0.3-0.1-0.3-0.3s0.1-0.3,0.3-0.3h5c0.2,0,0.3,0.1,0.3,0.3s-0.1,0.3-0.3,0.3H169z"/>
		</g>
		<path class="st74" d="M197.1,185.1h-7.5c-2.8,0-5.1,2.3-5.1,5.1v7.5c0,2.8,2.3,5.1,5.1,5.1h7.5c2.8,0,5.1-2.3,5.1-5.1v-7.5
			C202.2,187.3,199.9,185.1,197.1,185.1z"/>
		<g>
			<path class="st84" d="M205.2,187c-0.2,0-0.3-0.1-0.3-0.3c0-0.2,0.1-0.3,0.3-0.3H217c0.2,0,0.3,0.1,0.3,0.3c0,0.2-0.1,0.3-0.3,0.3
				H205.2z"/>
			<path class="st84" d="M205.2,189.8c-0.2,0-0.3-0.1-0.3-0.3s0.1-0.3,0.3-0.3H217c0.2,0,0.3,0.1,0.3,0.3s-0.1,0.3-0.3,0.3H205.2z"
				/>
			<path class="st84" d="M205.2,192.7c-0.2,0-0.3-0.1-0.3-0.3c0-0.2,0.1-0.3,0.3-0.3H217c0.2,0,0.3,0.1,0.3,0.3
				c0,0.2-0.1,0.3-0.3,0.3H205.2z"/>
			<path class="st84" d="M205.2,195.5c-0.2,0-0.3-0.1-0.3-0.3c0-0.2,0.1-0.3,0.3-0.3H217c0.2,0,0.3,0.1,0.3,0.3
				c0,0.2-0.1,0.3-0.3,0.3H205.2z"/>
			<path class="st84" d="M205.2,198.4c-0.2,0-0.3-0.1-0.3-0.3s0.1-0.3,0.3-0.3H217c0.2,0,0.3,0.1,0.3,0.3s-0.1,0.3-0.3,0.3H205.2z"
				/>
			<path class="st84" d="M205.2,201.3c-0.2,0-0.3-0.1-0.3-0.3s0.1-0.3,0.3-0.3h5c0.2,0,0.3,0.1,0.3,0.3s-0.1,0.3-0.3,0.3H205.2z"/>
		</g>
		<g>
			<path class="st85" d="M232,150h-3.5c-0.2,0-0.3,0.2-0.3,0.3l0,0c0,0.2,0.2,0.3,0.3,0.3h3.5c0.2,0,0.3-0.2,0.3-0.3l0,0
				C232.3,150.2,232.2,150,232,150z"/>
			<path class="st85" d="M232,151.6h-3.5c-0.2,0-0.3,0.2-0.3,0.3l0,0c0,0.2,0.2,0.3,0.3,0.3h3.5c0.2,0,0.3-0.2,0.3-0.3l0,0
				C232.3,151.8,232.2,151.6,232,151.6z"/>
			<path class="st85" d="M232,153.2h-3.5c-0.2,0-0.3,0.2-0.3,0.3l0,0c0,0.2,0.2,0.3,0.3,0.3h3.5c0.2,0,0.3-0.2,0.3-0.3l0,0
				C232.3,153.4,232.2,153.2,232,153.2z"/>
		</g>
		<g>
			<path class="st73" d="M107.1,151.8c0,0.8-0.7,1.5-1.5,1.5c-0.8,0-1.5-0.7-1.5-1.5s0.7-1.5,1.5-1.5
				C106.4,150.2,107.1,150.9,107.1,151.8z"/>
			<path class="st74" d="M115.3,151.8c0,0.8-0.7,1.5-1.5,1.5s-1.5-0.7-1.5-1.5s0.7-1.5,1.5-1.5S115.3,150.9,115.3,151.8z"/>
			<path class="st76" d="M123.7,151.8c0,0.8-0.7,1.5-1.5,1.5c-0.8,0-1.5-0.7-1.5-1.5s0.7-1.5,1.5-1.5
				C123.1,150.2,123.7,150.9,123.7,151.8z"/>
		</g>
		<path class="st74" d="M161.8,195.7l-3.9-5.5c-0.4-0.6-1.3-0.6-1.7,0l-3.9,5.5c-0.5,0.7,0,1.7,0.9,1.7h7.8
			C161.8,197.4,162.3,196.4,161.8,195.7z"/>
		<circle class="st76" cx="193.3" cy="194.6" r="4.6"/>
	</g>
	<path class="st71" d="M260.4,216.7c0-2.4-40-4.3-89.4-4.3c-49.4,0-89.4,1.9-89.4,4.3c0,2.4,40,4.3,89.4,4.3
		C220.3,221,260.4,219.1,260.4,216.7z"/>
	<g>
		<path class="st86" d="M159.5,134.8c-0.2-1-0.7-3.3-2.6-2.5c-3.8-1.5-5.5,0.4-5.7,2.8c-0.3,3.1-2.1,4.3-1.4,5.2
			c0.8,1.1,3.3,2.7,5.8,2.8c2.7,0.1,5-2.1,5.7-3.3C161.8,138.9,159.9,137.8,159.5,134.8z"/>
		<g>
			<path class="st85" d="M172.3,150.1c-1.4-2.5-6.7-8-7.3-8.2c-1.7-0.6-4.3-0.8-5.9-1c-1-0.2-3.9-0.1-3.9-0.1l-1.1,0
				c-1.5,0-5.5,0.2-8.4,1.2c-0.6,0.2-6.1,5.7-7.4,8.2c-0.3,0.6-0.3,1.3-0.1,1.9l5.8,11.6l2.9-0.6l-2.3-10c-0.2-0.8,0.1-1.6,0.6-2.1
				l3.7-4.3h5.2h7.4l3.7,4.3c0.6,0.5,0.8,1.3,0.6,2.1l-2.3,10l2.9,0.4l5.7-11.4C172.6,151.4,172.6,150.7,172.3,150.1z"/>
			<path class="st87" d="M146.6,163l1.3,1.1c0.2,0.1,0.1,0.4-0.1,0.4l-0.5,0l0.3,0.9c0.4,1-1.7,2.5-2.5,0.5l-0.9-2.5L146.6,163z"/>
			<path class="st87" d="M164,163l-1.3,1.1c-0.2,0.1-0.1,0.4,0.1,0.4l0.5,0l-0.3,0.9c-0.4,1,1.7,2.5,2.5,0.5l0.9-2.7L164,163z"/>
		</g>
		<g>
			<g>
				<path class="st87" d="M158.6,136.1l0,2.3c0,0.9-0.3,1.7-0.9,2.3c-0.1,0.1-0.2,0.2-0.3,0.3c-1.1,1.1-2.8,1.1-3.9,0.1l-0.3-0.3
					c-0.6-0.6-1-1.4-1-2.3l0-2.3c0,0,3.3,0,4.6-1.6C156.6,134.7,157.3,135.9,158.6,136.1z"/>
				<path class="st87" d="M158.6,136.1l0,2.3c0,0.9-0.3,1.7-0.9,2.3c-0.1,0.1-0.2,0.2-0.3,0.3c-1.1,1.1-2.8,1.1-3.9,0.1l-0.3-0.3
					c-0.6-0.6-1-1.4-1-2.3l0-2.3c0,0,3.3,0,4.5-1.6C156.6,134.7,157.3,135.9,158.6,136.1z"/>
				<path class="st87" d="M152.9,139c0.6-1-0.5-2.1-1.5-1.4c-0.1,0.1-0.1,0.1-0.2,0.2c-0.6,1,0.5,2.1,1.5,1.4
					C152.8,139.2,152.9,139.1,152.9,139z"/>
				<path class="st87" d="M159.4,138.9c0.6-1-0.4-2-1.4-1.5c-0.1,0.1-0.2,0.2-0.3,0.3c-0.5,1,0.5,2,1.5,1.3
					C159.3,139.1,159.4,139,159.4,138.9z"/>
			</g>
		</g>
		<path class="st87" d="M157.2,141.3c0-1-0.8-1.9-1.8-1.9c-1,0-1.8,0.8-1.8,1.9s0.8,2.1,1.8,2.1
			C156.4,143.4,157.2,142.3,157.2,141.3z"/>
		<path class="st88" d="M153.6,141.2C153.6,141.3,153.6,141.3,153.6,141.2c0,0.2,0.9,1.1,1.9,1.1c0.9,0,1.8-1,1.8-1c0,0,0-0.1,0-0.1
			C156.2,142.1,154.6,142.1,153.6,141.2z"/>
		<path class="st76" d="M146.9,163l-2.3-10c-0.2-0.8,0.1-1.6,0.6-2.1l3.7-4.3c0,0,0.8-1.4,0.4-1.2c-0.4,0.2-5.8,4.9-6.3,6
			c-0.4,0.9,1.8,8.4,2.8,11.9L146.9,163z"/>
		<path class="st76" d="M165,141.9c-0.1,0-0.2-0.1-0.3-0.1c1.1,1.2,7.4,8.8,6.7,10.4c-0.6,1.4-4.6,8.6-5.8,11.1l1,0.1l5.7-11.4
			c0.3-0.6,0.3-1.3-0.1-1.9C170.9,147.7,165.6,142.1,165,141.9z"/>
	</g>
	<g>
		<g>
			<path class="st74" d="M111.9,198.2l0.3,0.9l4.9-0.5c0,0,5.4,6.9,7.6,9.2c0.2,0.2,0.5,0.5,0.8,0.9c1.4-3.4,4.3-14.3,1.4-15.2
				C122.5,192.3,111.9,198.2,111.9,198.2z"/>
			<path class="st89" d="M121.7,204.3c1.2,1.4,2.3,2.7,3,3.5c0.2,0.2,0.5,0.5,0.8,0.9c0.9-2.1,2.3-7.2,2.6-10.8
				C127.1,198,123.8,201.8,121.7,204.3z"/>
		</g>
		<g>
			<path class="st90" d="M117.1,198.6c0,0,5.4,6.9,7.6,9.2c2.2,2.3,7.3,9.2-6.4,8.7c-13.7-0.5-19.9-2.6-19.9-2.6l-0.3-3l14.4-1.5
				c0,0-9-1-7.9-9.5L117.1,198.6z"/>
			<path class="st80" d="M117.4,199.7l0.2-0.4c1.4,1.8,5.3,6.7,7.1,8.6c0.9,0.9,2.2,2.5,2.6,4.1c-1-2.4-4.3-4.7-7-7.4
				C116.8,201.1,117.4,199.7,117.4,199.7z"/>
			<path class="st74" d="M95.6,211.6c0,0,0,0-0.1,0c-0.5,0-1.8,0.1-2.1,0.7c-0.3,0.7-0.4,4.2,1.9,4.3c2.3,0.1-0.4-1.7,0.4-2.5
				L95.6,211.6z"/>
			<path class="st74" d="M98.1,210.9l14.4-1.5c0,0,1.6,0.7,6.4,2.6c2.9,1.2,6,2.3,7.7,3.1c-1.2,1-3.7,1.6-8.2,1.4
				c-13.7-0.5-19.9-2.6-19.9-2.6L98.1,210.9z"/>
			<path class="st91" d="M98.4,213.9c0,0-1.7-0.7-2.7,0.2c-1.3,1.4-0.1-2.6-0.1-2.6l2.5-0.6L98.4,213.9z"/>
		</g>
		<g>
			<path class="st49" d="M130.8,175.8l-4.2-3.4c-0.1-0.1-0.2-0.3-0.1-0.5c0.7-1.5,0.3-3.4-1.1-4.4c-1.3-0.9-3.2-0.8-4.4,0.3
				c-0.2,0.2-0.4,0.5-0.6,0.7c-0.9,1.4-0.6,3.4,0.8,4.5c1.3,1,3,1.1,4.3,0.1c0,0,0.1,0,0.1-0.1c0.1,0,0.3,0,0.4,0.1l4.2,3.4
				c0.1,0.1,0.2,0.1,0.4,0.1c0.1,0,0.3-0.1,0.3-0.2C131,176.4,131,176,130.8,175.8z M125.4,172c-0.9,1.1-2.5,1.2-3.6,0.3
				c-1.1-0.9-1.2-2.5-0.3-3.6c0.9-1.1,2.5-1.2,3.6-0.3C126.1,169.3,126.3,170.9,125.4,172z"/>
			<path class="st73" d="M125,168.4c-1.1-0.9-2.7-0.8-3.6,0.3c-0.9,1.1-0.8,2.7,0.3,3.6c1.1,0.9,2.7,0.8,3.6-0.3
				C126.3,170.9,126.1,169.3,125,168.4z"/>
		</g>
		<path class="st91" d="M128.6,173.8c-0.4-0.1-0.8,0.2-1.1,0.6c-0.1-0.4-0.3-0.9-0.5-1c-0.3-0.1-0.6,2.3-0.6,2.3l0.2-0.2
			c0,0.1-0.1,0.1-0.1,0.1l2,1.1C129.8,174.9,129.5,173.9,128.6,173.8z"/>
		<path class="st73" d="M104.6,192.2c0.4-4.2,1-8.6,1.8-9.8c0.4-0.6,0.7-1,1.2-1.3c0,0,0,0,0,0s-3.8,2.4-5.3,6.1
			C101.5,188.9,102.9,190.8,104.6,192.2z"/>
		<g>
			<path class="st91" d="M114.9,180.8l-0.1-1.6c0.5-0.1,1-0.3,1.4-0.7c1-1.1,1-3.1,0.1-4.2c-0.9,0.3-1.9,0.1-2,0.5
				c-0.1,0.7-0.1,1.3-0.1,1.3c-0.7-0.4-1.4-0.4-1.3,0.6c0,0.4,0.3,1,0.6,1c0,0,0.2,1.6-1.4,2.2c0,0,0,0,0,0l0,0.6L114.9,180.8z"/>
			<path class="st74" d="M109.3,175.3c0.7-2.9,1.8-4.5,4.9-4.5c2.8-0.1,3.1,2.2,3.1,2.2c-0.1,2-2.9,1.1-3,1.8
				c-0.1,0.7-0.1,1.3-0.1,1.3c-0.7-0.4-1.4-0.4-1.3,0.6c0,0.4,0.3,1,0.6,1c0,0,0.2,1.6-1.4,2.2C112,180,108.6,178.1,109.3,175.3z"/>
			<path class="st92" d="M109.3,175.3c0.7-2.9,1.8-4.5,4.9-4.5c1.8,0,2.6,1,2.9,1.6c-1.4-1.3-4.3-2.1-6.2,0.9
				c-1.6,2.6-0.6,5.7,2.4,5.4c-0.2,0.5-0.5,1-1.3,1.3C112,180,108.6,178.1,109.3,175.3z"/>
			<path class="st93" d="M114.1,179.7c-0.3-0.2-0.6-1-0.6-1c0.3,0.4,1.2,0.5,1.2,0.5l0.1,1.6l-0.6-0.1
				C114.3,180.2,114.2,179.8,114.1,179.7z"/>
		</g>
		<path class="st73" d="M104,200.3c0,0,0.8-15.6,2.4-18c0.7-1,1.2-1.5,2.2-1.7c0.6-0.1,2.8-0.2,3.4-0.1c1.4,0.1,4.8,0.6,5.6,0.9
			c1.1,0.5,5.6,4.4,5.6,4.4l3-10.3l2.5,0.9c0,0-2.4,15.1-4.4,15.1c-1.9,0-6.9-2.7-6.9-2.7s-0.4,9.5,1.5,11.2
			C118.9,199.9,111.1,203.5,104,200.3z"/>
		<path class="st94" d="M106.4,181.9c0.7-0.6,1.2-0.9,1.2-0.9s0,0,0,0c-0.4,0.3-0.8,0.7-1.2,1.3c-0.8,1.2-1.4,5.7-1.8,9.8
			c-0.4-0.3-0.8-0.7-1.2-1.1C103.6,188.6,104.2,184.2,106.4,181.9z"/>
		<path class="st95" d="M114.6,187.6c-0.3-0.5,2.8,1.2,2.8,1.2s-0.4,9.5,1.5,11.2c0,0-0.5,0.3-1.5,0.6c-1.1-3.2-0.8-7.5-1-8.9
			C116.1,189.5,114.9,188.1,114.6,187.6z"/>
	</g>
	<g>
		<g>
			<path class="st91" d="M218.2,214.7c0,0.1,0,0.3,0,0.5c-0.1,0.5-0.6,0.8-0.8,0.9c0.1,0,0.1,0,0.2,0c0.9,0.4,1.5,0.5,2.4,0.1
				c0.1,0,0.1,0,0.2,0c0-0.5-0.1-1.1-0.2-1.5H218.2z"/>
			<path class="st80" d="M220.4,217.7c0-0.4,0-0.8,0-1.1c0-0.2-0.2-0.3-0.4-0.3c-0.9,0.4-1.4,0.3-2.4-0.1c-0.7-0.3-3,1-3.6,1.4
				c0,0,0,0,0,0c-0.3,0.2-0.1,0.7,0.2,0.7h5.6C220.2,218.2,220.4,218,220.4,217.7z"/>
		</g>
		<g>
			<path class="st91" d="M227.5,214.4c0,0.1,0,0.3,0,0.5c-0.1,0.5-0.6,0.8-0.8,0.9c0.1,0,0.1,0,0.2,0c0.9,0.4,1.5,0.5,2.4,0.1
				c0.1,0,0.1,0,0.2,0c0-0.5-0.1-1.1-0.2-1.5H227.5z"/>
			<path class="st80" d="M229.7,217.3c0-0.4,0-0.8,0-1.1c0-0.2-0.2-0.3-0.4-0.3c-0.9,0.4-1.4,0.3-2.4-0.1c-0.7-0.3-3,1-3.6,1.4
				c0,0,0,0,0,0c-0.3,0.2-0.1,0.7,0.2,0.7h5.6C229.5,217.8,229.7,217.6,229.7,217.3z"/>
		</g>
		<path class="st74" d="M228,181.9c0,0.8,0.6,2.9,0.6,5.3c0,4.6-2.3,10.8-2.3,10.8l3.9,16.6l-3.3,0.1l-7.3-16.2l0.5-17.4L228,181.9z
			"/>
		<path class="st80" d="M225.3,181c0,0-0.5,5.4-1.6,9.4c-0.9,3.3-7.6,8.4-7.6,8.4l4.3,16.2h-2.7l-9.7-15.7c-0.2-0.7-0.2-1.4,0.1-2.1
			l9.2-17.6L225.3,181z"/>
		<path class="st91" d="M202.5,178.1l-3.5,0c0,0,0.2,2.1,3.8,2.1L202.5,178.1z"/>
		<g>
			<path class="st91" d="M221.2,160.5c0-0.2,0.1-0.6,0.1-0.9c-0.1-1.1-0.7-1.3-1.5-0.6c0,0-0.7-0.4-1-1.2c-0.2-0.5-1.1-0.1-1.9-0.3
				c-0.6,1.5-0.1,3.6,1.3,4.6c0.5,0.4,1,0.4,1.7,0.4l0.2,2.7l3.2-0.9l0-1.6C221.9,162.8,221,161.7,221.2,160.5z"/>
		</g>
		<path class="st96" d="M218.7,215c-0.7-1.2-9.2-15.6-7.9-17.4c1.3-1.8,7.1-13.2,7.1-13.2l-1.4-1.8c0,0-0.4,0.3-1.1,0.9l-7.2,13.8
			c-0.3,0.6-0.3,1.4-0.1,2.1l9.7,15.7H218.7z"/>
		<path class="st73" d="M217.5,168c0.2-3.3,5.3-3.6,5.9-3.6c0.7,0,1.4,0.4,1.9,0.9c0.8,0.9,2.4,2.9,1.9,5.7
			c-1.3,7.2,1.4,11.9,1.7,14.1c-4.8,1.9-14.9-0.5-14.9-0.5l3.1-11.8L217.5,168z"/>
		<path class="st73" d="M213.7,175.9c0,0,3.1-11.4,7.2-10.8c4.4,0.7-2.9,14.9-2.9,14.9l-15.2,0.3l-0.3-2.4L213.7,175.9z"/>
		<path class="st94" d="M220.3,179.7c-0.7,2.2-3.2,2.1-3.2,2.1l-1.4,3.4c-1-0.2-1.7-0.3-1.7-0.3l1.2-4.7l2.8-0.1
			c0,0,5.1-9.9,4.2-13.6C222.3,166.8,223.6,169.8,220.3,179.7z"/>
		<path class="st74" d="M224.6,172.1c-5.1-0.3-3.4-10.3-3.3-12.2c0-1.1-0.7-1.5-1.5-0.9c0,0-0.7-0.4-1-1.2c-0.2-0.5-1.4-0.1-2.1-0.3
			c1.5-5.9,8.4-5.6,11.5,2.4C230.7,166.7,232.8,172.5,224.6,172.1z"/>
		<path class="st93" d="M220.2,163c0.1-0.1,0.7-1.2,0.7-1.2c-0.3,0.3-0.8,0.5-1,0.6c-0.1,0-0.1,0.1-0.1,0.1l0.2,2.7l0.4-0.1
			C220.2,164.3,220.1,163.1,220.2,163z"/>
		<path class="st95" d="M216.6,170.8c0.7-3.1,2.7-5.1,3.3-5.6c-3.5,1.2-6.1,10.7-6.1,10.7l-11.2,2l12.5-0.7
			C215,177.2,215.8,174.4,216.6,170.8z"/>
		<path class="st89" d="M222.2,154.9c3.7,1.7,5.9,7.7,4.8,17c5.2-0.9,3.3-6,1-12.1c-3.1-8-10-8.3-11.5-2.4
			C216.6,157.5,218.5,153.2,222.2,154.9z"/>
	</g>
	<g>
		<g>
			<g>
				<path class="st73" d="M254.4,183.7c-0.2,1.3-4.6,8.9-7.2,14c-2.1,4-1.6,7.8-1.4,9.2h0.5c-0.3-1.8-0.4-1.5,0-4.2
					c0.5-3,5.2-5.1,8.2-10.9C257.5,186,254.6,182.4,254.4,183.7z"/>
				<path class="st73" d="M244.5,203.9c0.2,1.4,0.3,2.4,0.3,3.1h0.3c0.1-2.5,0.2-6.7,0.1-9.5c-0.1-4.2,1-5.9,1.6-12.9
					c0.6-7-1.2-17-1.2-17s-4.4,8.9-2.8,18.9C244.3,196.4,243.8,197.5,244.5,203.9z"/>
				<path class="st73" d="M243.2,202.5c0,1.6,0.3,3.5,0.5,4.5h0.3c0-0.7-0.1-2.1-0.2-4.4c-0.2-7.2-0.9-7.1-2.2-11.9
					c-1.2-4.8-3.3-6.8-5.3-9.2c0,0-2.1,3.5,0.9,8.6c3,5.1,4.2,5.5,5,8C242.9,200.5,243.2,200.2,243.2,202.5z"/>
				<path class="st73" d="M242.5,207h0.3c0.1-1,0.2-2.5-0.7-3.8c-1.4-2.3-2.5-5.4-4.6-7.5c-2.9-2.8-4.9-9.8-4.9-9.8
					s-1.5,6.2,1.4,11.1c3,4.9,5.4,5.8,6.8,6.6C242.2,204.5,242.5,206,242.5,207z"/>
			</g>
			<path class="st76" d="M244.8,207L244.8,207l0.3-1c0.1-2.5,0.2-6.1,0.1-8.6c-0.1-4.2,1-5.9,1.6-12.9c0.6-7-1.2-17-1.2-17
				s-1.7,13.9-1.2,20.2C244.9,193.7,244.8,205.3,244.8,207z"/>
			<path class="st76" d="M254.6,183.4c0,1.9-0.1,8.2-3.9,11.6c-4.3,3.9-5.7,8.3-4.4,11.9h0c-0.3-1.8-0.4-1.5,0-4.2
				c0.5-3,5.2-5.1,8.2-10.9C257.1,186.6,255.2,183.2,254.6,183.4z"/>
			<path class="st76" d="M243.8,207h0.1c0-0.7-0.1-2.1-0.2-4.4c-0.2-7.2-0.9-7.1-2.2-11.9c-1.2-4.8-3.3-6.8-5.3-9.2
				c0,0-0.1,4.8,3,9.4c3.1,4.6,4,8,4.1,9.3C243.5,201.1,243.7,205.5,243.8,207z"/>
			<path class="st76" d="M242.6,207h0.2c0.1-1,0.2-2.5-0.7-3.8c-1.4-2.3-2.5-5.4-4.6-7.5c-2.9-2.8-4.9-9.8-4.9-9.8s0.1,7.9,2.4,10.2
				c2.3,2.3,2.2,1.6,4,3.9c1.8,2.3,2.3,2.9,3,4.3C242.5,205.2,242.6,206.3,242.6,207z"/>
		</g>
		<path class="st83" d="M248.2,205.7h-8.1c-0.8,0-1.4,0.7-1.3,1.6l1.6,8.3c0.1,0.6,0.7,1.1,1.3,1.1h4.9c0.6,0,1.2-0.4,1.3-1.1
			l1.6-8.3C249.7,206.5,249.1,205.7,248.2,205.7z"/>
		<path class="st84" d="M249.5,206.7c-0.1-0.6-0.6-1-1.3-1h-8.1c-0.6,0-1.1,0.4-1.3,1H249.5z"/>
		<path class="st84" d="M248.2,205.7h-1.8c0.8,0,1.4,0.7,1.3,1.6l-1.6,8.3c-0.1,0.6-0.7,1.1-1.3,1.1h1.8c0.6,0,1.2-0.4,1.3-1.1
			l1.6-8.3C249.7,206.5,249.1,205.7,248.2,205.7z"/>
	</g>
</g>
<rect class="st97" width="304.6" height="267.9"/>
<linearGradient id="SVGID_19_" gradientUnits="userSpaceOnUse" x1="6.8384" y1="133.5627" x2="292.4346" y2="133.5627">
	<stop  offset="0" style="stop-color:#00EAF7"/>
	<stop  offset="0.2192" style="stop-color:#14BDEA"/>
	<stop  offset="0.5945" style="stop-color:#3475D4"/>
	<stop  offset="0.8644" style="stop-color:#4747C7"/>
	<stop  offset="1" style="stop-color:#4F36C2"/>
</linearGradient>
<path class="st98" d="M162,3.1c-29,0-56.4,9.3-79.3,26.9l4.2,5.5C108.6,18.8,134.6,10,162,10c68.1,0,123.5,55.4,123.5,123.5
	c0,68.1-55.4,123.5-123.5,123.5c-32.7,0-64.7-14-88-37h-3.8c-23.2,0-42-7-54.5-20.3L32.2,177c10.8,9.1,22.5,14,33.3,14
	c17.2,0,27.5-7.1,27.5-19.1c0-16.4-11.2-22.8-41.2-23.3v-24.5c16.4-0.4,36-3.6,36-22.2c0-11.8-7.5-18.6-20.7-18.6
	c-11.1,0-19.3,4.4-28.8,12.1l-18-21.8c15.8-12.5,31.4-18.4,48.9-18.4c35.4,0,56.6,16.2,56.6,43.3c0,14.6-8,25.3-24.6,32.6l-2.1,0.9
	v5.9l2.4,0.7c19,5.8,29.4,18.7,29.4,36.4h6.9c0-18.8-9.8-33-27.7-40.6c15-8.4,22.5-20.4,22.5-35.9c0-15.7-6.1-28.6-17.7-37.4
	c-11-8.4-26.9-12.8-45.8-12.8c-19.9,0-38.2,7.3-56,22.2l-2.6,2.2l26.9,32.5l2.7-2.3c9.7-8.3,16.9-12.7,27-12.7
	c5.9,0,13.8,1.2,13.8,11.7c0,7.6-3.9,15.3-32.6,15.3h-3.5v38.2h3.5c37.8,0,37.8,9.1,37.8,16.4c0,10.6-12.9,12.2-20.5,12.2
	c-10.1,0-21.3-5.2-31.6-14.7l-2.9-2.6L6.8,200.3l1.8,2.1C22.5,218.5,43.8,227,70.2,227H71c24.5,23.8,56.8,37,91,37
	c71.9,0,130.4-58.5,130.4-130.4C292.4,61.6,233.9,3.1,162,3.1z"/>
<g class="st99">
	<path class="st100" d="M108.5,190.7c-34.4-47.2-7.2-99,39.3-100.7c38-1.3,35.8,21.7,70.5,10.4c46.6-12,61.7,51.5,33.9,90.3
		C153.7,190.7,108.5,190.7,108.5,190.7z"/>
	<g class="st101">
		<g>
			<g>
				<path class="st102" d="M226.1,146.7c0,0-1.8,0.5-3,0.1c-1.2-0.4-3.2,0.2-3.5,0.7c-0.3,0.4-0.2,0.6,0.4,0.7c0.6,0.1,2.6,1,4,0.5
					c1.3-0.5,3.1-0.5,3.1-0.5L226.1,146.7z"/>
				<path class="st103" d="M242,130.7c0,0-2.1,14.7-5.5,16c-1.7,0.7-9.2,2.1-11.4,2.3c0,0-0.5-0.4-0.4-2.2c0,0,7.8-2.9,8.9-4.4
					c1.7-2.3-1-9.5,1-11.7C236.8,128.5,240.3,127.5,242,130.7z"/>
			</g>
			<path class="st104" d="M240.4,189L240.4,189c-0.8,0-1.4-0.6-1.4-1.4v-22.2c0-0.8,0.6-1.4,1.4-1.4h0c0.8,0,1.4,0.6,1.4,1.4v22.2
				C241.8,188.4,241.1,189,240.4,189z"/>
			<path class="st104" d="M249.2,190.7c-0.9-1.9-4.5-3.3-8.8-3.3c-4.3,0-7.9,1.4-8.8,3.3H249.2z"/>
			<path class="st104" d="M246.6,184.2h-12.5c-0.3,0-0.5-0.2-0.5-0.5v0c0-0.3,0.2-0.5,0.5-0.5h12.5c0.3,0,0.5,0.2,0.5,0.5v0
				C247.1,184,246.8,184.2,246.6,184.2z"/>
			<path class="st56" d="M241.3,161.7c-0.6,1-1.3,2-2,2.9c-2.2,2.8-4.6,5.1-5.1,7.3c-0.1,0.4-0.2,0.9-0.4,1.4
				c-0.2,0.5-0.4,1-0.6,1.6c-0.9,2.1-2.4,4.3-3.8,6.4c-2.4,3.6-4.7,6.6-4.7,6.6l-4.2-0.2c0.2-0.4,2-5.4,4.5-11.5
				c1-2.5,2.1-5.1,3.1-7.6c0.1-0.3,0.3-0.7,0.4-1c0.3-0.8,0.6-1.5,0.9-2.3c2.3-5.7,4.1-10.3,4.1-10.3s9.2-3.5,10.2-1.2
				C244.5,155.7,243.8,157.5,241.3,161.7z"/>
			<path class="st56" d="M224.6,187.2c0,0-0.2,3.5-0.9,3.5c-0.1,0-3.4,0-3.4,0l-4.2,0c0,0,0-1,1.3-1.2c1.2-0.2,3.3-1.1,4.1-2.7
				C222.2,185,224.6,187.2,224.6,187.2z"/>
			<path class="st56" d="M234.3,177.3c0,0,2.9,1.9,2.6,2.5c0,0.1-1.7,3-1.7,3l-2.1,3.7c0,0-0.9-0.5-0.5-1.7c0.4-1.2,0.7-3.4-0.4-4.9
				C231.2,178.3,234.3,177.3,234.3,177.3z"/>
			<path class="st55" d="M230.2,153.5c0,0-11.4,7.1-12.7,11.9c-1.3,4.8,15.4,15.2,15.4,15.2s1.8-1.6,2.1-2.8c0,0-7.5-9-9.2-11
				c-1-1.2,14.8-4.3,16.8-7.3c1.9-3,1.2-5.5,1.2-5.5L230.2,153.5z"/>
			<path class="st105" d="M249.8,169.1h-19c-1.8,0-3.2-1.4-3.2-3.2v-0.1c0-1.8,1.4-3.2,3.2-3.2h19c1.8,0,3.2,1.4,3.2,3.2v0.1
				C253,167.6,251.6,169.1,249.8,169.1z"/>
			<path class="st102" d="M235.7,128.2c-1.1,0.7-1.8,1.6-1.8,1.6c2.8,0.7,7.4-1.8,7.4-1.8s-1.8-1.2-2.4-3.8c0-0.1-0.1-0.3-0.1-0.4
				c-0.1-0.4-0.1-0.9-0.1-1.4l-1.3,1.1l-2.1,1.9c0,0,0,0.8,0.3,2.1C235.6,127.7,235.6,127.9,235.7,128.2z"/>
			<path class="st106" d="M244.2,141.2c-0.4,5.3,0.1,13.4-0.3,14.8c-0.4,1.2-4.8,0.5-6.6,0.1c-0.7-0.1-1.4-0.4-2.3-0.6
				c-2.3-0.7-4.8-1.7-5-2.5c0,0,0-0.1,0-0.1c0-0.1,0-0.2,0-0.3c0.1-0.4,0.4-0.8,0.5-1.7c0-1.1,0-2.3,0.1-3.6c0-0.2,0-0.3,0-0.5
				l0-0.1c0,0,0-0.1,0-0.1c0-1.5,0.1-3.1,0.2-4.6c0.1-1,0.1-1.9,0.2-2.9c0.2-2.4,0.5-4.5,0.8-5.9c0.6-2.2,1.9-3.6,3-4.7l0.8-0.7
				c0.9,0.2,2,0.1,3.1-0.4c1.1-0.5,1.5-0.9,1.7-0.7C242.9,128.8,244.7,134.7,244.2,141.2z"/>
			<path class="st103" d="M235.1,155.6c-2.3-0.7-4.8-1.7-5-2.5c0,0,0-0.1,0-0.1c0-0.1,0-0.2,0-0.3c0.1-0.4,0.4-0.8,0.5-1.7
				c0-1.1,0-2.3,0.1-3.6c0-0.2,0-0.3,0-0.5l0-0.1c0,0,0-0.1,0-0.1l8.6-3.9C239.2,142.8,239.7,149.8,235.1,155.6z"/>
			<path class="st107" d="M238.8,123.9C238.8,123.9,238.8,123.9,238.8,123.9c0-0.1,0-0.1,0-0.2c-0.3-0.1-0.8-0.2-1.4-0.3l-2.1,1.9
				c0,0,0,0.5,0.2,1.3C237.5,126,238.5,124.7,238.8,123.9z"/>
			<path class="st102" d="M234.4,125.3c0,0,4.5,0.5,4.8-2.3c0.3-2.8,1-4.7-1.8-5.1c-2.9-0.4-3.6,0.6-3.9,1.5
				C233.2,120.2,233.2,125.1,234.4,125.3z"/>
			<path class="st104" d="M239,123.9c-0.7-0.3-0.6-1.8-1.1-3c-0.4-1-1.4-1.8-3.2-2c-2.8-0.2-1.3-2.7-0.9-3.1c0,0,2.2,0.3,4.4,0.7
				C242.9,117.3,239.5,123.3,239,123.9z"/>
			<path class="st102" d="M237.8,121.7c0.4-0.7,1.1-0.9,1.2-0.2c0.1,0.7-0.5,1.4-0.8,1.3C237.9,122.6,237.8,121.7,237.8,121.7z"/>
			<g>
				
					<rect x="215.1" y="139.8" transform="matrix(0.9511 -0.3089 0.3089 0.9511 -34.3381 73.6201)" class="st103" width="0.4" height="10.9"/>
				
					<rect x="216.8" y="149.7" transform="matrix(0.9998 -2.135063e-02 2.135063e-02 0.9998 -3.1531 4.7861)" class="st103" width="11.5" height="0.7"/>
			</g>
			<g>
				<path class="st102" d="M227.1,149c0,0-1.8,0.7-3,0.5s-3.1,0.6-3.4,1c-0.3,0.5-0.1,0.6,0.5,0.7c0.6,0.1,2.7,0.7,4,0.1
					c1.3-0.7,3-0.9,3-0.9L227.1,149z"/>
				<path class="st106" d="M241.1,131.3c0,0-0.4,14.9-3.7,16.5c-1.6,0.8-8.9,3.1-11.1,3.5c0,0-0.6-0.4-0.7-2.2c0,0,7.5-3.7,8.4-5.4
					c1.4-2.5-2.1-9.3-0.2-11.7C235.7,129.6,239.1,128.3,241.1,131.3z"/>
			</g>
		</g>
		<g>
			<g>
				<path class="st108" d="M176.5,190.7H176c-11.9,0-21.6-9.7-21.6-21.6v-39.7c0-11.9,9.7-21.6,21.6-21.6h0.5
					c11.9,0,21.6,9.7,21.6,21.6v39.7C198.1,180.9,188.3,190.7,176.5,190.7z"/>
				<path class="st109" d="M200.4,110v78.4c0,1.2-1,2.2-2.2,2.2h-39.2c-1.2,0-2.2-1-2.2-2.2V110c0-1.2,1-2.2,2.2-2.2h39.2
					C199.4,107.8,200.4,108.8,200.4,110z"/>
				<g>
					<path class="st110" d="M184.9,110.9h-11.4c-0.2,0-0.4-0.2-0.4-0.4l0,0c0-0.2,0.2-0.4,0.4-0.4h11.4c0.2,0,0.4,0.2,0.4,0.4l0,0
						C185.4,110.7,185.2,110.9,184.9,110.9z"/>
					<path class="st110" d="M171.6,110.9L171.6,110.9c-0.2,0-0.4-0.2-0.4-0.4l0,0c0-0.2,0.2-0.4,0.4-0.4l0,0c0.2,0,0.4,0.2,0.4,0.4
						l0,0C172,110.7,171.8,110.9,171.6,110.9z"/>
				</g>
				<path class="st111" d="M181.9,186.1c0,0.8-0.3,1.5-0.8,2c-0.5,0.5-1.2,0.8-2,0.8c-1.6,0-2.8-1.3-2.8-2.8c0-1,0.5-1.9,1.3-2.4
					c0.4-0.3,1-0.4,1.5-0.4C180.6,183.2,181.9,184.5,181.9,186.1z"/>
				<rect x="159.3" y="112.9" class="st111" width="38.7" height="68.9"/>
				<path class="st112" d="M181.1,188.1c-0.5,0.5-1.2,0.8-2,0.8c-1.6,0-2.8-1.3-2.8-2.8c0-1,0.5-1.9,1.3-2.4
					C177.8,184.9,178.7,186.9,181.1,188.1z"/>
			</g>
			<path class="st113" d="M197.5,121.1L197.5,121.1h-18h-18c-0.3,0-0.6,0.3-0.6,0.7v23c0,0.4,0.3,0.7,0.6,0.7h18h17.9h0.1
				c0.3,0,0.6-0.3,0.6-0.7v-23C198,121.5,197.8,121.1,197.5,121.1z"/>
			<path class="st113" d="M184,149.1L184,149.1H170h-14.1c-0.2,0-0.4,0.3-0.4,0.7v23c0,0.4,0.2,0.7,0.4,0.7H170h14h0.1
				c0.2,0,0.4-0.3,0.4-0.7v-23C184.5,149.5,184.3,149.1,184,149.1z"/>
			<g>
				<path class="st40" d="M211.2,119.8v23c0,0.4-0.3,0.7-0.7,0.7h-46.7c-0.4,0-0.7-0.3-0.7-0.7v-23c0-0.4,0.3-0.7,0.7-0.7h46.7
					C210.9,119.1,211.2,119.4,211.2,119.8z"/>
				<path class="st58" d="M211.2,119.8v23c0,0.4-0.4,0.7-0.8,0.7h-23.2v-24.5h23.2C210.8,119.1,211.2,119.4,211.2,119.8z"/>
				<g>
					<path class="st40" d="M198.5,128h-8.2c-0.3,0-0.5-0.2-0.5-0.5l0,0c0-0.3,0.2-0.5,0.5-0.5h8.2c0.3,0,0.5,0.2,0.5,0.5l0,0
						C199.1,127.8,198.8,128,198.5,128z"/>
					<path class="st40" d="M196.4,129.6h-6.1c-0.3,0-0.5-0.2-0.5-0.5v0c0-0.3,0.2-0.5,0.5-0.5h6.1c0.3,0,0.5,0.2,0.5,0.5v0
						C197,129.3,196.7,129.6,196.4,129.6z"/>
				</g>
				<g>
					<path class="st40" d="M190.4,122.1c0.2-0.3,0.5-0.4,0.8-0.4c0.3,0,0.6,0.1,0.8,0.4c0.2,0.3,0.3,0.6,0.3,1s-0.1,0.7-0.3,1
						c-0.2,0.3-0.5,0.4-0.8,0.4c-0.3,0-0.6-0.1-0.8-0.4c-0.2-0.3-0.3-0.6-0.3-1C190.1,122.7,190.2,122.4,190.4,122.1z M191.8,122.3
						c-0.1-0.2-0.3-0.3-0.6-0.3c-0.2,0-0.4,0.1-0.6,0.3c-0.1,0.2-0.2,0.5-0.2,0.8c0,0.3,0.1,0.6,0.2,0.8c0.1,0.2,0.3,0.3,0.6,0.3
						c0.2,0,0.4-0.1,0.6-0.3c0.1-0.2,0.2-0.5,0.2-0.8C192,122.8,191.9,122.5,191.8,122.3z"/>
					<path class="st40" d="M194.4,122.1c0.2,0.2,0.3,0.5,0.3,0.9c0,0.8-0.4,1.5-1.1,1.5c-0.2,0-0.4-0.1-0.5-0.2V124
						c0.2,0.1,0.3,0.2,0.5,0.2c0.6,0,0.9-0.6,0.9-1.1c-0.1,0.2-0.4,0.4-0.8,0.4c-0.2,0-0.4-0.1-0.6-0.2c-0.2-0.2-0.2-0.4-0.2-0.6
						c0-0.3,0.1-0.5,0.3-0.6c0.2-0.2,0.4-0.2,0.6-0.2C194,121.8,194.2,121.9,194.4,122.1z M193.2,122.2c-0.1,0.1-0.2,0.3-0.2,0.4
						c0,0.2,0.1,0.3,0.2,0.4c0.1,0.1,0.3,0.2,0.5,0.2c0.2,0,0.3,0,0.4-0.1c0.1-0.1,0.2-0.2,0.3-0.4c0-0.4-0.3-0.7-0.7-0.7
						C193.5,122,193.3,122.1,193.2,122.2z"/>
					<path class="st40" d="M195.2,122.7c0.1-0.1,0.2-0.1,0.3,0c0.1,0.1,0.1,0.2,0,0.3c-0.1,0.1-0.2,0.1-0.3,0
						C195.1,122.9,195.1,122.8,195.2,122.7z M195.2,124.1c0.1-0.1,0.2-0.1,0.3,0c0.1,0.1,0.1,0.2,0,0.3c-0.1,0.1-0.2,0.1-0.3,0
						C195.1,124.3,195.1,124.2,195.2,124.1z"/>
					<path class="st40" d="M196.5,124.4v-2.3l-0.6,0.3v-0.3l0.6-0.4h0.2v2.6H196.5z"/>
					<path class="st40" d="M197.7,122.1c0.2-0.3,0.5-0.4,0.8-0.4c0.3,0,0.6,0.1,0.8,0.4c0.2,0.3,0.3,0.6,0.3,1s-0.1,0.7-0.3,1
						c-0.2,0.3-0.5,0.4-0.8,0.4c-0.3,0-0.6-0.1-0.8-0.4c-0.2-0.3-0.3-0.6-0.3-1C197.4,122.7,197.5,122.4,197.7,122.1z M199,122.3
						c-0.1-0.2-0.3-0.3-0.6-0.3c-0.2,0-0.4,0.1-0.6,0.3c-0.1,0.2-0.2,0.5-0.2,0.8c0,0.3,0.1,0.6,0.2,0.8c0.1,0.2,0.3,0.3,0.6,0.3
						c0.2,0,0.4-0.1,0.6-0.3c0.1-0.2,0.2-0.5,0.2-0.8C199.2,122.8,199.2,122.5,199,122.3z"/>
					<path class="st40" d="M201.1,124.4v-2.6h1.1c0.5,0,0.8,0.3,0.8,0.7c0,0.4-0.3,0.7-0.8,0.7h-0.8v1.1H201.1z M201.4,123h0.8
						c0.4,0,0.6-0.2,0.6-0.5c0-0.3-0.2-0.5-0.6-0.5h-0.8V123z"/>
					<path class="st40" d="M203.6,124.4v-2.6h0.3l0.9,1.3l0.9-1.3h0.3v2.6h-0.3v-2.2l-0.8,1.1h-0.2l-0.9-1.1v2.2H203.6z"/>
				</g>
				<path class="st114" d="M176.9,143.5h-13.1c-0.4,0-0.7-0.3-0.7-0.7v-15.7C166.7,131.4,173.7,139.7,176.9,143.5z"/>
				<path class="st58" d="M175,122.1c-2.6,0-4.8,2.1-4.8,4.8c0,2.6,4.8,8.5,4.8,8.5s4.8-5.8,4.8-8.5
					C179.8,124.2,177.6,122.1,175,122.1z M175,129c-1.2,0-2.2-1-2.2-2.2c0-1.2,1-2.2,2.2-2.2c1.2,0,2.2,1,2.2,2.2
					C177.2,128,176.2,129,175,129z"/>
				<g>
					<path class="st115" d="M174.6,139.3h-8.2c-0.3,0-0.5-0.2-0.5-0.5l0,0c0-0.3,0.2-0.5,0.5-0.5h8.2c0.3,0,0.5,0.2,0.5,0.5l0,0
						C175.1,139,174.9,139.3,174.6,139.3z"/>
					<path class="st115" d="M172.5,140.8h-6.1c-0.3,0-0.5-0.2-0.5-0.5v0c0-0.3,0.2-0.5,0.5-0.5h6.1c0.3,0,0.5,0.2,0.5,0.5v0
						C173,140.6,172.8,140.8,172.5,140.8z"/>
				</g>
			</g>
			<g>
				<path class="st40" d="M188.1,148.1v23c0,0.4-0.3,0.7-0.7,0.7h-46.7c-0.4,0-0.7-0.3-0.7-0.7v-23c0-0.4,0.3-0.7,0.7-0.7h46.7
					C187.8,147.4,188.1,147.7,188.1,148.1z"/>
				<path class="st58" d="M188.1,148.1v23c0,0.4-0.3,0.7-0.7,0.7h-20.8v-24.5h20.8C187.8,147.4,188.1,147.7,188.1,148.1z"/>
				<g>
					<g>
						<path class="st40" d="M177.2,164.6c-0.4,0-0.8-0.2-1-0.6l-3.1-5.2c-0.3-0.6-0.1-1.3,0.4-1.6c0.6-0.3,1.3-0.1,1.6,0.4l2,3.4
							l3.7-7.6c0.3-0.6,1-0.8,1.6-0.5c0.6,0.3,0.8,1,0.5,1.6l-4.7,9.6C178.1,164.3,177.7,164.6,177.2,164.6
							C177.3,164.6,177.3,164.6,177.2,164.6z"/>
					</g>
					<g>
						<path class="st40" d="M177.2,167.3c-4,0-7.2-3.2-7.2-7.2c0-4,3.2-7.2,7.2-7.2c4,0,7.2,3.2,7.2,7.2
							C184.5,164.1,181.2,167.3,177.2,167.3z M177.2,153.7c-3.5,0-6.4,2.9-6.4,6.4c0,3.5,2.9,6.4,6.4,6.4c3.5,0,6.4-2.9,6.4-6.4
							C183.6,156.6,180.8,153.7,177.2,153.7z"/>
					</g>
				</g>
				<path class="st114" d="M153.7,171.9h-12.9c-0.4,0-0.7-0.3-0.7-0.7v-17.8L153.7,171.9z"/>
				<g>
					<g>
						<path class="st58" d="M146.3,151.4c-1.4,0-2.6,1.2-2.6,2.6c0,1.4,1.2,2.6,2.6,2.6c1.4,0,2.6-1.2,2.6-2.6
							C148.9,152.5,147.7,151.4,146.3,151.4z M148.1,154h-1.8c0,0-0.1,0-0.1-0.1V152c0,0,0-0.1,0.1-0.1c0,0,0.1,0,0.1,0.1v1.8h1.7
							C148.1,153.9,148.2,153.9,148.1,154C148.2,154,148.1,154,148.1,154z"/>
						<g>
							<path class="st115" d="M159.6,153h-8.2c-0.3,0-0.5-0.2-0.5-0.5l0,0c0-0.3,0.2-0.5,0.5-0.5h8.2c0.3,0,0.5,0.2,0.5,0.5l0,0
								C160.1,152.8,159.9,153,159.6,153z"/>
							<path class="st115" d="M157.5,154.6h-6.1c-0.3,0-0.5-0.2-0.5-0.5v0c0-0.3,0.2-0.5,0.5-0.5h6.1c0.3,0,0.5,0.2,0.5,0.5v0
								C158,154.3,157.8,154.6,157.5,154.6z"/>
						</g>
					</g>
					<g>
						<path class="st58" d="M146,161.4c-1.3,0-2.3,1-2.3,2.3c0,1.3,2.3,4.1,2.3,4.1s2.3-2.9,2.3-4.1
							C148.4,162.4,147.3,161.4,146,161.4z M146,164.8c-0.6,0-1.1-0.5-1.1-1.1c0-0.6,0.5-1.1,1.1-1.1c0.6,0,1.1,0.5,1.1,1.1
							C147.1,164.3,146.6,164.8,146,164.8z"/>
						<g>
							<path class="st115" d="M159,163.1h-8.2c-0.3,0-0.5-0.2-0.5-0.5l0,0c0-0.3,0.2-0.5,0.5-0.5h8.2c0.3,0,0.5,0.2,0.5,0.5l0,0
								C159.5,162.8,159.3,163.1,159,163.1z"/>
							<path class="st115" d="M156.9,164.6h-6.1c-0.3,0-0.5-0.2-0.5-0.5v0c0-0.3,0.2-0.5,0.5-0.5h6.1c0.3,0,0.5,0.2,0.5,0.5v0
								C157.4,164.4,157.2,164.6,156.9,164.6z"/>
						</g>
					</g>
				</g>
			</g>
			<path class="st40" d="M204.6,141.4h-10.4c-1.1,0-1.9-0.9-1.9-1.9v0c0-1.1,0.9-1.9,1.9-1.9h10.4c1.1,0,1.9,0.9,1.9,1.9v0
				C206.6,140.5,205.7,141.4,204.6,141.4z"/>
			<g>
				<g>
					<path class="st58" d="M199.4,140.3c-0.1,0-0.1,0-0.2-0.1l-0.6-1c-0.1-0.1,0-0.2,0.1-0.3c0.1-0.1,0.2,0,0.3,0.1l0.4,0.6l0.7-1.4
						c0.1-0.1,0.2-0.2,0.3-0.1c0.1,0.1,0.2,0.2,0.1,0.3l-0.9,1.8C199.6,140.3,199.5,140.3,199.4,140.3
						C199.4,140.3,199.4,140.3,199.4,140.3z"/>
				</g>
				<g>
					<path class="st58" d="M199.4,140.8c-0.7,0-1.3-0.6-1.3-1.3c0-0.7,0.6-1.3,1.3-1.3c0.7,0,1.3,0.6,1.3,1.3
						C200.8,140.2,200.1,140.8,199.4,140.8z M199.4,138.3c-0.7,0-1.2,0.5-1.2,1.2c0,0.7,0.5,1.2,1.2,1.2c0.7,0,1.2-0.5,1.2-1.2
						C200.6,138.8,200.1,138.3,199.4,138.3z"/>
				</g>
			</g>
		</g>
		<g>
			<g>
				<path class="st59" d="M121.4,126.8c0,0-5.5,5.5-5.8,7.7c-0.3,2.2,2.7,5.7,2.7,5.7L121.4,126.8z"/>
				<path class="st56" d="M124.2,187.5c0,0,0.2,3.1,0.8,3.2c0.1,0,3.1,0,3.1,0l3.8,0c0,0,0-0.9-1.1-1.1c-1.1-0.2-3-1-3.7-2.4
					C126.3,185.5,124.2,187.5,124.2,187.5z"/>
				<path class="st56" d="M115.7,187.5c0,0,0.2,3.1,0.8,3.2c0.1,0,3.1,0,3.1,0l3.8,0c0,0,0-0.9-1.1-1.1c-1.1-0.2-3-1-3.7-2.4
					C117.8,185.5,115.7,187.5,115.7,187.5z"/>
				<path class="st56" d="M128.3,153.9c0,0-1,6.4-4.7,17.7c-3.7,11.3-4.2,16.2-4.2,16.2l-4-0.1c0,0-0.1-12.4,1.6-18.1
					c1.7-5.7,0.3-20.5,0.3-20.5L128.3,153.9z"/>
				<path class="st55" d="M130.2,149.5c0,0,0.2,9.6-1.5,21.4c-1.6,11.8-1.1,16.8-1.1,16.8l-4,0.1c0,0-2.4-11.8-1.7-17.7
					c0.7-5.9-3.3-20.2-3.3-20.2L130.2,149.5z"/>
				<path class="st44" d="M122.5,127l2.1,1.4l3.1-0.6c0-0.2-0.2-1.3-0.4-2.2c0-0.1,0-0.1,0-0.2c-0.2-0.8-0.3-1.5-0.3-1.5l-2.9-1.3
					l-1.1-0.5c0,0,0.1,0.9,0.1,1C123.3,125.5,122.5,127,122.5,127z"/>
				<path class="st116" d="M126.9,126.3c-0.1,0-3.7-1.1-4.1-1c-0.4,0.1-0.6,0.9-0.6,0.9l5.9,1.3
					C128.1,127.6,127.6,126.6,126.9,126.3z"/>
				<path class="st117" d="M117.2,150.7c0.6,2.8,10.9,3.1,13.5,0.6c0.3-0.3,0.3-1.6,0.2-3.5c-0.2-3.6-1-8.9-1-11.6
					c0-1.3-0.2-2.7-0.4-3.9c-0.5-2.6-1.3-4.7-1.3-4.7s-5-1.6-5.9-1.3C117.7,127.6,116.5,147.9,117.2,150.7z"/>
				<path class="st116" d="M130.8,147.8c-0.2-3.6-1-8.9-1-11.6c0-1.3-0.2-2.7-0.4-3.9l-3-0.5C126.4,131.7,123.5,143.7,130.8,147.8z"
					/>
				<path class="st118" d="M123.4,142.1c2.1-1,5.3-4.7,5.6-5.7c1.5,0.2,1.5,1.5,1.5,1.5c-2.1,4.4-6.3,7-7.1,7.4
					C123.6,143.6,123.4,142.1,123.4,142.1z"/>
				<path class="st44" d="M129.2,142.8c0,0-0.2,0.5,0.2,0.8c0.4,0.3,0.7,0.9,0.6,1.3c-0.1,0.4-1,1-1.4,0.9c-0.3-0.1-1-0.6-0.9-0.8
					c0.1-0.2-0.5-1.8,0.3-2.4C128.9,142,129.2,142.8,129.2,142.8z"/>
				<path class="st117" d="M125.8,127c0,0,3,0.4,5.3,3.8c2.3,3.5,3.9,6,3.5,7.2c-0.4,1.2-4.3,5.6-5,5.6c-0.7,0-1.8-0.5-1.8-1.6
					c0,0,2.9-4.2,2.4-4.8c-0.2-0.3-3.8-3-4.2-1.7C125,137.6,125.8,127,125.8,127z"/>
				<path class="st119" d="M123.3,123.3c0.6,1.1,3,2,4,2.3c0-0.1,0-0.1,0-0.2c-0.2-0.8-0.3-1.5-0.3-1.5l-2.9-1.3
					C123.4,122.7,123,122.9,123.3,123.3z"/>
				<path class="st44" d="M128,123.8c0,0-4.6,1.4-5.5-1.4c-0.9-2.9-2-4.6,0.9-5.7c2.9-1,3.8-0.1,4.3,0.8
					C128.2,118.4,129.2,123.4,128,123.8z"/>
				<path class="st56" d="M127.5,117.2c0,0-0.3,3.4-1,3.2c-0.7-0.1-1.3-0.3-1.2,0.8c0.1,1,1,2.2-1.6,2.5c-2.1,0.2-4.7-5.5-4.1-6.5
					C121.3,114.1,130,113.5,127.5,117.2z"/>
			</g>
			<path class="st118" d="M123.1,129.9c1.2-2,3.1-2.7,4.5-2.5c1.5,0.5,1.7,1.4,1.7,1.4c-2.2-0.8-5.6,2.7-6.1,5.5
				C122.6,133.6,123.1,129.9,123.1,129.9z"/>
			<path class="st59" d="M119.1,146.8H119c-4,0-7.3-3.3-7.3-7.3v-4.7c0-4,3.3-7.3,7.3-7.3h0.2c4,0,7.3,3.3,7.3,7.3v4.7
				C126.4,143.5,123.2,146.8,119.1,146.8z"/>
			<path class="st58" d="M111.9,146.8h-0.2c-4,0-7.3-3.3-7.3-7.3v-4.7c0-4,3.3-7.3,7.3-7.3h0.2c4,0,7.3,3.3,7.3,7.3v4.7
				C119.2,143.5,115.9,146.8,111.9,146.8z"/>
			<path class="st117" d="M114.2,133.7c-1.5,0-2.8,1.2-2.8,2.8c0,1.5,2.8,4.9,2.8,4.9s2.8-3.4,2.8-4.9
				C116.9,135,115.7,133.7,114.2,133.7z M114.2,137.8c-0.7,0-1.3-0.6-1.3-1.3c0-0.7,0.6-1.3,1.3-1.3s1.3,0.6,1.3,1.3
				C115.5,137.2,114.9,137.8,114.2,137.8z"/>
			<g>
				<path class="st117" d="M106.2,141.4v0.5c-0.1,0-0.3,0-0.4,0v-1.6c0.3,0,0.7,0,1,0c0,0.1,0,0.2,0,0.4h-0.6v0.4h0.5
					c0,0.1,0,0.2,0,0.4H106.2z"/>
				<path class="st117" d="M108,141.7h-0.6l-0.1,0.2h-0.4v-0.1l0.7-1.6h0.2l0.7,1.6v0.1h-0.4L108,141.7z M107.7,140.9l-0.2,0.4h0.4
					L107.7,140.9z"/>
				<path class="st117" d="M109.5,141.4c0-0.1-0.1-0.1-0.3-0.1c-0.4,0-0.6-0.1-0.6-0.5c0-0.7,1.2-0.7,1.2,0c-0.1,0-0.3,0-0.4,0
					c0-0.2-0.4-0.2-0.5,0c0,0.1,0.1,0.1,0.3,0.2c0.3,0,0.6,0.1,0.6,0.5c0,0.7-1.3,0.7-1.3,0c0.1,0,0.3,0,0.4,0
					C109,141.6,109.5,141.6,109.5,141.4z"/>
				<path class="st117" d="M110,140.6c0-0.1,0-0.2,0-0.4h1.2c0,0.1,0,0.2,0,0.4h-0.4v1.3c-0.1,0-0.3,0-0.4,0v-1.3H110z"/>
			</g>
			<g>
				<path class="st117" d="M106.4,144h-0.6v-1.6h0.6C107.5,142.4,107.5,144,106.4,144z M106.2,143.6h0.2c0.5,0,0.5-0.9,0-0.9h-0.2
					V143.6z"/>
				<path class="st117" d="M108.5,142.7c-0.2,0-0.4,0-0.6,0v0.2h0.6c0,0.1,0,0.2,0,0.4h-0.6c0,0.1,0,0.2,0,0.3c0.2,0,0.4,0,0.6,0
					c0,0.1,0,0.2,0,0.4c-0.4,0-0.7,0-1,0c0-0.5,0-1.1,0-1.6c0.4,0,0.6,0,1,0C108.5,142.5,108.5,142.6,108.5,142.7z"/>
				<path class="st117" d="M109.3,143.6h0.6c0,0.1,0,0.2,0,0.4c-0.3,0-0.7,0-1,0v-1.6c0.1,0,0.3,0,0.4,0
					C109.3,143.2,109.3,142.9,109.3,143.6z"/>
				<path class="st117" d="M110.9,143.6c0,0.1,0,0.2,0,0.4c-0.3,0-0.5,0-0.8,0c0-0.1,0-0.2,0-0.4h0.2v-0.9h-0.2c0-0.1,0-0.2,0-0.4
					c0.3,0,0.5,0,0.8,0c0,0.1,0,0.2,0,0.4h-0.2v0.9H110.9z"/>
				<path class="st117" d="M111.8,143.3L111.8,143.3l0.4-0.9h0.4v0.1l-0.7,1.6h-0.2l-0.7-1.6v-0.1h0.4L111.8,143.3z"/>
				<path class="st117" d="M113.8,142.7c-0.2,0-0.4,0-0.6,0v0.2h0.6c0,0.1,0,0.2,0,0.4h-0.6c0,0.1,0,0.2,0,0.3c0.2,0,0.4,0,0.6,0
					c0,0.1,0,0.2,0,0.4c-0.4,0-0.7,0-1,0c0-0.5,0-1.1,0-1.6c0.4,0,0.6,0,1,0C113.8,142.5,113.8,142.6,113.8,142.7z"/>
				<path class="st117" d="M115.6,143.9L115.6,143.9l-0.5,0.1l-0.3-0.5h-0.2v0.5c-0.1,0-0.3,0-0.4,0c0-0.5,0-1.1,0-1.6
					c0.2,0,0.5,0,0.7,0c0.6,0,0.8,0.8,0.3,1L115.6,143.9z M114.9,142.7c-0.1,0-0.2,0-0.3,0c0,0.1,0,0.3,0,0.4h0.3
					C115.1,143.1,115.1,142.7,114.9,142.7z"/>
				<path class="st117" d="M116.6,144h-0.4v-0.7l-0.5-0.9v-0.1h0.4l0.3,0.5h0l0.3-0.5h0.5v0.1l-0.5,0.9V144z"/>
			</g>
		</g>
	</g>
	<path class="st120" d="M95.4,191h169.8c0.1,0,0.2-0.1,0.2-0.2v0c0-0.1-0.1-0.2-0.2-0.2H95.4c-0.1,0-0.2,0.1-0.2,0.2v0
		C95.2,190.9,95.3,191,95.4,191z"/>
</g>
</svg>
